<svg xmlns="http://www.w3.org/2000/svg" viewBox="0 0 60.98 52.67"><defs><style>.cls-1{fill:#5816bf;}</style></defs><title>id-flex-logo</title><g id="Layer_1" data-name="Layer 1"><path class="cls-1" d="M48.23,47.18l-14.72.22a.57.57,0,0,1-.57-.56l-.2-13.44a.57.57,0,0,1,.56-.57L48,32.6a.57.57,0,0,1,.57.56l.2,13.44A.57.57,0,0,1,48.23,47.18Zm-14.17-.92,13.59-.21-.19-12.31-13.59.21Z"/><path class="cls-1" d="M41.25,44.4l-1.71,0a.57.57,0,0,1-.57-.62l.32-3.55-.56-.1a.57.57,0,0,1-.46-.55l0-1.92a2.07,2.07,0,0,1,2.31-2.3A.57.57,0,0,1,41,36a.56.56,0,0,1-.62.5,1.11,1.11,0,0,0-.77.24,1.2,1.2,0,0,0-.29.93l0,1.46.61.11a.57.57,0,0,1,.46.61l-.31,3.43,1.08,0a.57.57,0,0,1,0,1.13Z"/><path class="cls-1" d="M41.89,44.39l-1.71,0a.57.57,0,1,1,0-1.13l1.08,0-.41-3.42a.57.57,0,0,1,.44-.62l.61-.13,0-1.46a1.2,1.2,0,0,0-.32-.92,1.12,1.12,0,0,0-.77-.21.57.57,0,0,1-.16-1.12,2.23,2.23,0,0,1,1.66.47A2.25,2.25,0,0,1,43,37.62l0,1.92a.57.57,0,0,1-.45.56l-.56.12.43,3.53a.57.57,0,0,1-.55.63Z"/><path class="cls-1" d="M47.41,32.75l-1.13,0-.08-5.38a5.52,5.52,0,0,0-11,.17l.08,5.38-1.13,0L34,27.57a6.66,6.66,0,0,1,13.31-.2Z"/><path class="cls-1" d="M45.07,32.78l-1.13,0-.08-5a3.18,3.18,0,0,0-6.36.1l.08,5-1.13,0-.08-5A4.31,4.31,0,0,1,45,27.75Z"/><path class="cls-1" d="M25,31.77l-15,.1a.58.58,0,0,1-.58-.57L9.41,17.64a.58.58,0,0,1,.57-.58l15-.1a.58.58,0,0,1,.58.57l.09,13.66A.58.58,0,0,1,25,31.77ZM10.65,30.72l13.81-.09-.09-12.51-13.81.09Z"/><path class="cls-1" d="M18,28.89H16.25a.58.58,0,0,1-.58-.63l.35-3.6-.57-.11A.58.58,0,0,1,15,24V22a2.1,2.1,0,0,1,2.37-2.32.58.58,0,0,1-.13,1.14,1.13,1.13,0,0,0-.78.23,1.22,1.22,0,0,0-.3.94v1.48l.62.12a.58.58,0,0,1,.46.62l-.34,3.49H18a.58.58,0,0,1,0,1.15Z"/><path class="cls-1" d="M18.63,28.89H16.9a.58.58,0,0,1,0-1.15H18l-.39-3.48a.58.58,0,0,1,.45-.63l.62-.13V22a1.22,1.22,0,0,0-.31-.93,1.14,1.14,0,0,0-.78-.22.58.58,0,0,1-.15-1.14,2.26,2.26,0,0,1,1.68.49,2.29,2.29,0,0,1,.72,1.8v2a.58.58,0,0,1-.46.57l-.57.12.4,3.6a.58.58,0,0,1-.57.64Z"/><path class="cls-1" d="M33.55,17.61l-3.53,0L30,12a3.23,3.23,0,0,0-6.47,0l0,5.11H22.4l0-5.11a4.38,4.38,0,0,1,8.77-.06l0,4.53h1.23l0-4.89a5.61,5.61,0,0,0-11.22.08l0,5.47H20l0-5.47a6.76,6.76,0,0,1,13.52-.09Z"/><path class="cls-1" d="M47,14.38a.5.5,0,0,1-.5-.49S46.41,10,43.79,7.73C42.21,6.38,40,5.88,37.27,6.25a.5.5,0,1,1-.13-1c3-.41,5.5.17,7.31,1.72,3,2.54,3.07,6.71,3.07,6.89a.5.5,0,0,1-.49.51Z"/><path class="cls-1" d="M47,16.92a.5.5,0,0,1-.3-.1l-3.24-2.47a.5.5,0,1,1,.61-.79L47,15.76l2.26-2.22a.5.5,0,0,1,.7.71l-2.57,2.52A.5.5,0,0,1,47,16.92Z"/><path class="cls-1" d="M23.06,47.14a8.16,8.16,0,0,1-5.49-1.85c-3-2.54-3.07-6.71-3.07-6.89A.5.5,0,0,1,15,37.9a.48.48,0,0,1,.51.49s.11,3.92,2.73,6.15C19.81,45.9,22,46.39,24.75,46a.49.49,0,0,1,.56.43.5.5,0,0,1-.43.56A13.56,13.56,0,0,1,23.06,47.14Z"/><path class="cls-1" d="M12.46,38.88a.5.5,0,0,1-.35-.86l2.57-2.52a.5.5,0,0,1,.65,0l3.24,2.47a.5.5,0,1,1-.61.79l-2.89-2.21-2.26,2.22A.5.5,0,0,1,12.46,38.88Z"/></g></svg>