<?xml version="1.0" encoding="utf-8"?>
<!-- Generator: Adobe Illustrator 21.0.0, SVG Export Plug-In . SVG Version: 6.00 Build 0)  -->
<svg version="1.1" id="Layer_1" xmlns="http://www.w3.org/2000/svg" xmlns:xlink="http://www.w3.org/1999/xlink" x="0px" y="0px"
	 viewBox="0 0 67 74.3" style="enable-background:new 0 0 67 74.3;" xml:space="preserve">
<style type="text/css">
	.st0{fill:none;stroke:#5816BF;stroke-width:2;stroke-linecap:round;stroke-linejoin:round;stroke-miterlimit:10;}
	.st1{fill:none;stroke:#5816BF;stroke-width:2;stroke-miterlimit:10;}
	.st2{fill:#5816BF;}
	.st3{fill:none;stroke:#5816BF;stroke-width:3;stroke-linecap:round;stroke-linejoin:round;stroke-miterlimit:10;}
	.st4{clip-path:url(#SVGID_2_);}
	.st5{fill:none;stroke:#5816BF;stroke-linecap:round;stroke-linejoin:round;stroke-miterlimit:10;}
	.st6{fill:none;}
	.st7{fill:none;stroke:#5816BF;stroke-width:2;stroke-linecap:round;stroke-miterlimit:10;}
	.st8{fill:#5816BF;stroke:#5816BF;stroke-width:0.75;stroke-miterlimit:10;}
	.st9{fill:none;stroke:#5816BF;stroke-miterlimit:10;}
	.st10{fill:none;stroke:#5816BF;stroke-width:0.75;stroke-linecap:round;stroke-linejoin:round;stroke-miterlimit:10;}
	.st11{fill:none;stroke:#5816BF;stroke-width:0.5;stroke-linecap:round;stroke-linejoin:round;stroke-miterlimit:10;}
	.st12{fill:none;stroke:#5816BF;stroke-linecap:round;stroke-miterlimit:10;}
	.st13{fill:#5816BF;stroke:#5816BF;stroke-width:0.25;stroke-miterlimit:10;}
	.st14{clip-path:url(#SVGID_4_);}
	.st15{fill:#FFFFFF;stroke:#5816BF;stroke-linecap:round;stroke-linejoin:round;stroke-miterlimit:10;}
</style>
<g>
	<path class="st2" d="M57.5,61.3h-2c0-8.8-9.9-16-22-16s-22,7.2-22,16h-2c0-9.9,10.8-18,24-18S57.5,51.4,57.5,61.3z"/>
	<path class="st2" d="M47.1,25c0.1,0.6,0.1,1.3,0.1,1.9c0,7.6-6.2,13.8-13.8,13.8s-13.8-6.2-13.8-13.8c0-0.7,0-1.3,0.1-1.9
		 M21.8,25.3c-0.1,0.5-0.1,1.1-0.1,1.6c0,6.5,5.3,11.8,11.8,11.8s11.8-5.3,11.8-11.8c0-0.5,0-1-0.1-1.5"/>
	<path class="st2" d="M33.4,74.3l-8-8l7.4-18l8.8,17.8L33.4,74.3z M27.7,65.8l5.7,5.7l5.8-5.8L33,53.1L27.7,65.8z"/>
	<polygon class="st2" points="33.7,51.2 28,45.5 29.4,44.1 33.7,48.4 37.6,44.5 39,45.9 	"/>
	<path class="st2" d="M33.5,9.8c0,0,0.4-0.9,0.5-1.2c0.4-0.9,0.9-1.3,1.5-1.3c0.7,0,1.7,1.2,2.4,3.7c0.5,2.1,0.7,3.7,0.7,4.8h-1.3
		v-0.1c0-0.7,0-2.7-0.4-4.4c-0.3-1.1-0.4-1.9-0.7-2.4c-0.3-0.7-0.5-0.9-0.7-0.9S35.1,8,34.8,9.2c-0.1,0.7-0.3,1.5-0.4,2.1
		c-0.1,1.1-0.3,3.3-0.3,4h-1.3c0-0.5-0.1-2.9-0.3-4c-0.1-0.7-0.3-1.5-0.4-2.1c-0.3-1.1-0.5-1.3-0.7-1.3c-0.3,0-0.5,0.3-0.7,0.9
		c-0.3,0.5-0.4,1.3-0.7,2.4c-0.4,1.7-0.4,3.7-0.4,4.4v0.1h-1.3c0-1.1,0.1-2.5,0.7-4.8c0.7-2.5,1.7-3.7,2.4-3.7
		c0.5,0,1.1,0.4,1.5,1.3C33.1,8.8,33.5,9.8,33.5,9.8l0.1,0.4L33.5,9.8"/>
	<g>
		<path class="st2" d="M35.1,26c-7.3,0-12.3-0.6-14.7-0.9c-1-0.2-1.8-0.8-2.3-1.7c-0.4-0.8-0.4-1.7-0.1-2.5l1.6-3.3
			c-0.3-1.5-1.1-6.8,2.1-10.9c2.4-3.1,6.5-4.7,12-4.7c0.6,0,1,0.4,1,1s-0.4,1-1,1c-4.9,0-8.4,1.3-10.4,3.9c-3,3.9-1.7,9.5-1.7,9.5
			c0.1,0.2,0,0.5-0.1,0.7l-1.7,3.6c-0.1,0.3-0.1,0.6,0,0.8c0.2,0.3,0.5,0.5,0.9,0.6C23,23.4,27.9,24,35.1,24c0.6,0,1,0.4,1,1
			S35.7,26,35.1,26z"/>
		<path class="st2" d="M33.8,20.1c-11.5,0-13.8-1.4-14.1-1.7c-0.4-0.4-0.5-1-0.1-1.4c0.3-0.4,0.9-0.5,1.4-0.2
			c0.2,0.1,2.4,1.3,12.9,1.3c0.6,0,1,0.4,1,1S34.3,20.1,33.8,20.1z"/>
		<g>
			<path class="st2" d="M31.9,26c-0.6,0-1-0.4-1-1s0.4-1,1-1c7.2,0,12.1-0.6,14.4-0.9c0.3-0.1,0.6-0.3,0.8-0.6
				c0.1-0.2,0.2-0.5,0-0.8l-1.7-3.6c-0.1-0.2-0.1-0.5-0.1-0.7c0-0.1,1.4-5.7-1.7-9.5C41.7,5.3,38.2,4,33.2,4c-0.6,0-1-0.4-1-1
				s0.4-1,1-1c5.6,0,9.6,1.6,12,4.7c3.2,4.1,2.4,9.4,2.1,10.9l1.6,3.3c0.4,0.8,0.3,1.8-0.1,2.6c-0.4,0.9-1.3,1.5-2.2,1.7
				C44.2,25.4,39.2,26,31.9,26z"/>
			<path class="st2" d="M33.2,20.1c-0.6,0-1-0.4-1-1s0.4-1,1-1c10.7,0,12.8-1.2,12.9-1.3c0.4-0.4,1-0.3,1.4,0.1
				c0.4,0.4,0.3,1.1-0.1,1.4C47,18.7,44.8,20.1,33.2,20.1z"/>
		</g>
	</g>
	<circle class="st2" cx="33.5" cy="1.5" r="1.5"/>
</g>
</svg>
