<?xml version="1.0" encoding="utf-8"?>
<!-- Generator: Adobe Illustrator 21.0.0, SVG Export Plug-In . SVG Version: 6.00 Build 0)  -->
<svg version="1.1" id="Layer_1" xmlns="http://www.w3.org/2000/svg" xmlns:xlink="http://www.w3.org/1999/xlink" x="0px" y="0px"
	 viewBox="0 0 61.4 53" style="enable-background:new 0 0 61.4 53;" xml:space="preserve">
<style type="text/css">
	.st0{fill:none;stroke:#5816BF;stroke-width:2;stroke-linecap:round;stroke-linejoin:round;stroke-miterlimit:10;}
	.st1{fill:none;stroke:#5816BF;stroke-width:2;stroke-miterlimit:10;}
	.st2{fill:#5816BF;}
	.st3{fill:none;stroke:#5816BF;stroke-width:3;stroke-linecap:round;stroke-linejoin:round;stroke-miterlimit:10;}
	.st4{clip-path:url(#SVGID_2_);}
	.st5{fill:none;stroke:#5816BF;stroke-linecap:round;stroke-linejoin:round;stroke-miterlimit:10;}
	.st6{fill:none;}
	.st7{fill:none;stroke:#5816BF;stroke-width:2;stroke-linecap:round;stroke-miterlimit:10;}
	.st8{fill:#5816BF;stroke:#5816BF;stroke-width:0.75;stroke-miterlimit:10;}
	.st9{fill:none;stroke:#5816BF;stroke-miterlimit:10;}
	.st10{fill:none;stroke:#5816BF;stroke-width:0.75;stroke-linecap:round;stroke-linejoin:round;stroke-miterlimit:10;}
	.st11{fill:none;stroke:#5816BF;stroke-width:0.5;stroke-linecap:round;stroke-linejoin:round;stroke-miterlimit:10;}
	.st12{fill:none;stroke:#5816BF;stroke-linecap:round;stroke-miterlimit:10;}
	.st13{fill:#5816BF;stroke:#5816BF;stroke-width:0.25;stroke-miterlimit:10;}
	.st14{clip-path:url(#SVGID_4_);}
	.st15{fill:#FFFFFF;stroke:#5816BF;stroke-linecap:round;stroke-linejoin:round;stroke-miterlimit:10;}
	.st16{fill:#FFFFFF;}
	.st17{clip-path:url(#SVGID_6_);}
</style>
<g>
	<g>
		<polyline class="st0" points="15.1,38.5 7.1,38.5 7.1,15.4 39.3,15.4 		"/>
		<polyline class="st0" points="46.8,15.4 53.9,15.4 53.9,38.5 23.1,38.5 		"/>
		<path class="st5" d="M33.4,22.6c0,0-4.1-1.5-5.2,0.4c-0.4,0.8-0.8,2.7,1.7,3c2.9,0.3,3.6,0.8,3.5,2.6c-0.2,2.4-2.4,2-5.9,1.5"/>
		<line class="st5" x1="30.5" y1="20" x2="30.5" y2="32.6"/>
	</g>
	<line class="st0" x1="43.2" y1="24.3" x2="43.2" y2="6.8"/>
	<polyline class="st0" points="35.8,8.3 42.9,1.2 50.5,8.8 	"/>
	<line class="st0" x1="19" y1="28.6" x2="19" y2="46.1"/>
	<polyline class="st0" points="26.3,44.6 19.2,51.7 11.7,44.1 	"/>
</g>
</svg>
