<?xml version="1.0" encoding="utf-8"?>
<!-- Generator: Adobe Illustrator 21.0.0, SVG Export Plug-In . SVG Version: 6.00 Build 0)  -->
<svg version="1.1" id="Layer_1" xmlns="http://www.w3.org/2000/svg" xmlns:xlink="http://www.w3.org/1999/xlink" x="0px" y="0px"
	 viewBox="0 0 61.4 53" style="enable-background:new 0 0 61.4 53;" xml:space="preserve">
<style type="text/css">
	.st0{fill:none;stroke:#5816BF;stroke-width:2;stroke-linecap:round;stroke-linejoin:round;stroke-miterlimit:10;}
	.st1{fill:none;stroke:#5816BF;stroke-width:2;stroke-miterlimit:10;}
	.st2{fill:#5816BF;}
	.st3{fill:none;stroke:#5816BF;stroke-width:3;stroke-linecap:round;stroke-linejoin:round;stroke-miterlimit:10;}
	.st4{clip-path:url(#SVGID_2_);}
	.st5{fill:none;stroke:#5816BF;stroke-linecap:round;stroke-linejoin:round;stroke-miterlimit:10;}
	.st6{fill:none;}
	.st7{fill:none;stroke:#5816BF;stroke-width:2;stroke-linecap:round;stroke-miterlimit:10;}
	.st8{fill:#5816BF;stroke:#5816BF;stroke-width:0.75;stroke-miterlimit:10;}
	.st9{fill:none;stroke:#5816BF;stroke-miterlimit:10;}
	.st10{fill:none;stroke:#5816BF;stroke-width:0.75;stroke-linecap:round;stroke-linejoin:round;stroke-miterlimit:10;}
	.st11{fill:none;stroke:#5816BF;stroke-width:0.5;stroke-linecap:round;stroke-linejoin:round;stroke-miterlimit:10;}
	.st12{fill:none;stroke:#5816BF;stroke-linecap:round;stroke-miterlimit:10;}
	.st13{fill:#5816BF;stroke:#5816BF;stroke-width:0.25;stroke-miterlimit:10;}
	.st14{clip-path:url(#SVGID_4_);}
	.st15{fill:#FFFFFF;stroke:#5816BF;stroke-linecap:round;stroke-linejoin:round;stroke-miterlimit:10;}
	.st16{fill:#FFFFFF;}
	.st17{clip-path:url(#SVGID_6_);}
</style>
<g>
	<path class="st2" d="M46.2,48.9H14.7c-1.7,0-3.1-1.4-3.1-3.1V7.1C11.6,5.4,13,4,14.7,4h31.5c1.7,0,3.1,1.4,3.1,3.1v38.7
		C49.3,47.5,47.9,48.9,46.2,48.9z M14.7,5.6c-0.8,0-1.5,0.7-1.5,1.5v38.7c0,0.8,0.7,1.5,1.5,1.5h31.5c0.8,0,1.5-0.7,1.5-1.5V7.1
		c0-0.8-0.7-1.5-1.5-1.5H14.7z"/>
	<path class="st2" d="M31.5,12.1H19.4c-0.2,0-0.4-0.2-0.4-0.4s0.2-0.4,0.4-0.4h12.1c0.2,0,0.4,0.2,0.4,0.4S31.7,12.1,31.5,12.1z"/>
	<path class="st2" d="M27.4,14.7h-8c-0.2,0-0.4-0.2-0.4-0.4c0-0.2,0.2-0.4,0.4-0.4h8c0.2,0,0.4,0.2,0.4,0.4
		C27.7,14.5,27.6,14.7,27.4,14.7z"/>
	<g>
		<path class="st2" d="M39.8,44.4H29.5c-0.6,0-1-0.5-1-1.2V28.1c0-0.7,0.5-1.2,1-1.2h10.3c0.6,0,1,0.5,1,1.2v15.1
			C40.8,43.9,40.3,44.4,39.8,44.4z M29.5,27.5c-0.3,0-0.5,0.3-0.5,0.6v15.1c0,0.3,0.2,0.6,0.5,0.6h10.3c0.3,0,0.5-0.3,0.5-0.6V28.1
			c0-0.3-0.2-0.6-0.5-0.6H29.5z"/>
		<path class="st2" d="M38.1,31.9h-6.6c-0.1,0-0.2-0.1-0.2-0.2s0.1-0.2,0.2-0.2h6.6c0.1,0,0.2,0.1,0.2,0.2S38.2,31.9,38.1,31.9z"/>
		<path class="st2" d="M37.8,29.9h-6.3c-0.1,0-0.2-0.1-0.2-0.2c0-0.1,0.1-0.2,0.2-0.2h6.3c0.1,0,0.2,0.1,0.2,0.2
			C38,29.8,37.9,29.9,37.8,29.9z"/>
		<path class="st2" d="M36.3,36h-4.8c-0.1,0-0.2-0.1-0.2-0.2c0-0.1,0.1-0.2,0.2-0.2h4.8c0.1,0,0.2,0.1,0.2,0.2
			C36.6,35.9,36.5,36,36.3,36z"/>
		<path class="st2" d="M36.3,39.5h-4.8c-0.1,0-0.2-0.1-0.2-0.2c0-0.1,0.1-0.2,0.2-0.2h4.8c0.1,0,0.2,0.1,0.2,0.2
			C36.6,39.5,36.5,39.5,36.3,39.5z"/>
		<path class="st2" d="M37.1,34h-5.5c-0.1,0-0.3-0.1-0.3-0.2c0-0.1,0.1-0.2,0.3-0.2h5.5c0.1,0,0.3,0.1,0.3,0.2
			C37.4,33.9,37.2,34,37.1,34z"/>
		<path class="st2" d="M36.3,41.4h-4.8c-0.1,0-0.2-0.1-0.2-0.2c0-0.1,0.1-0.2,0.2-0.2h4.8c0.1,0,0.2,0.1,0.2,0.2
			C36.6,41.3,36.5,41.4,36.3,41.4z"/>
		<path class="st2" d="M37.1,37.8h-5.5c-0.1,0-0.3-0.1-0.3-0.2c0-0.1,0.1-0.2,0.3-0.2h5.5c0.1,0,0.3,0.1,0.3,0.2
			C37.4,37.7,37.2,37.8,37.1,37.8z"/>
	</g>
	<path class="st2" d="M27.4,36h-7.8c-0.3,0-0.5-0.3-0.5-0.6V20.3c0-0.3,0.2-0.6,0.5-0.6h10.3c0.3,0,0.5,0.3,0.5,0.6v4.4h0.5v-4.4
		c0-0.7-0.5-1.2-1-1.2H19.6c-0.6,0-1,0.5-1,1.2v15.1c0,0.7,0.5,1.2,1,1.2h7.8V36z"/>
	<path class="st2" d="M28.6,21.7h-7.4c-0.1,0-0.2-0.1-0.2-0.2s0.1-0.2,0.2-0.2h7.4c0.1,0,0.2,0.1,0.2,0.2S28.7,21.7,28.6,21.7z"/>
	<path class="st2" d="M26.3,19.4h-7.1c-0.1,0-0.2-0.1-0.2-0.2S19,19,19.2,19h7.1c0.1,0,0.2,0.1,0.2,0.2S26.4,19.4,26.3,19.4z"/>
	<path class="st2" d="M25.7,28h-4.8c-0.1,0-0.2-0.1-0.2-0.2c0-0.1,0.1-0.2,0.2-0.2h4.8c0.1,0,0.2,0.1,0.2,0.2
		C25.9,28,25.8,28,25.7,28z"/>
	<path class="st2" d="M25.7,26h-4.8c-0.1,0-0.2-0.1-0.2-0.2c0-0.1,0.1-0.2,0.2-0.2h4.8c0.1,0,0.2,0.1,0.2,0.2
		C25.9,26,25.8,26,25.7,26z"/>
	<path class="st2" d="M25.7,31.6h-4.8c-0.1,0-0.2-0.1-0.2-0.2s0.1-0.2,0.2-0.2h4.8c0.1,0,0.2,0.1,0.2,0.2S25.8,31.6,25.7,31.6z"/>
	<path class="st2" d="M27.5,24h-6.2c-0.2,0-0.3-0.1-0.3-0.2s0.1-0.2,0.3-0.2h6.2c0.2,0,0.3,0.1,0.3,0.2S27.6,24,27.5,24z"/>
	<path class="st2" d="M25.7,33.4h-4.8c-0.1,0-0.2-0.1-0.2-0.2c0-0.1,0.1-0.2,0.2-0.2h4.8c0.1,0,0.2,0.1,0.2,0.2
		C25.9,33.4,25.8,33.4,25.7,33.4z"/>
	<path class="st2" d="M26.4,29.8h-5.5c-0.1,0-0.3-0.1-0.3-0.2c0-0.1,0.1-0.2,0.3-0.2h5.5c0.1,0,0.3,0.1,0.3,0.2
		C26.7,29.8,26.6,29.8,26.4,29.8z"/>
	<polyline class="st10" points="36.9,18.7 34.3,21.3 36.8,23.8 	"/>
	<line class="st10" x1="36.4" y1="21.1" x2="42.2" y2="21.1"/>
	<g>
		<path class="st5" d="M41.2,10.6c0,0-2.4-0.9-3,0.3c-0.2,0.4-0.4,1.6,1,1.8c1.7,0.2,2.1,0.5,2,1.5c-0.1,1.4-1.4,1.1-3.4,0.9"/>
		<line class="st5" x1="39.5" y1="9.1" x2="39.5" y2="16.4"/>
	</g>
</g>
</svg>
