<?xml version="1.0" encoding="utf-8"?>
<!-- Generator: Adobe Illustrator 21.0.0, SVG Export Plug-In . SVG Version: 6.00 Build 0)  -->
<svg version="1.1" id="Layer_1" xmlns="http://www.w3.org/2000/svg" xmlns:xlink="http://www.w3.org/1999/xlink" x="0px" y="0px"
	 viewBox="0 0 61.4 53" style="enable-background:new 0 0 61.4 53;" xml:space="preserve">
<style type="text/css">
	.st0{fill:none;stroke:#5816BF;stroke-width:2;stroke-linecap:round;stroke-linejoin:round;stroke-miterlimit:10;}
	.st1{fill:none;stroke:#5816BF;stroke-width:2;stroke-miterlimit:10;}
	.st2{fill:#5816BF;}
	.st3{fill:none;stroke:#5816BF;stroke-width:3;stroke-linecap:round;stroke-linejoin:round;stroke-miterlimit:10;}
	.st4{clip-path:url(#SVGID_2_);}
	.st5{fill:none;stroke:#5816BF;stroke-linecap:round;stroke-linejoin:round;stroke-miterlimit:10;}
	.st6{fill:none;}
	.st7{fill:none;stroke:#5816BF;stroke-width:2;stroke-linecap:round;stroke-miterlimit:10;}
	.st8{fill:#5816BF;stroke:#5816BF;stroke-width:0.75;stroke-miterlimit:10;}
	.st9{fill:none;stroke:#5816BF;stroke-miterlimit:10;}
	.st10{fill:none;stroke:#5816BF;stroke-width:0.75;stroke-linecap:round;stroke-linejoin:round;stroke-miterlimit:10;}
	.st11{fill:none;stroke:#5816BF;stroke-width:0.5;stroke-linecap:round;stroke-linejoin:round;stroke-miterlimit:10;}
	.st12{fill:none;stroke:#5816BF;stroke-linecap:round;stroke-miterlimit:10;}
	.st13{fill:#5816BF;stroke:#5816BF;stroke-width:0.25;stroke-miterlimit:10;}
	.st14{clip-path:url(#SVGID_4_);}
	.st15{fill:#FFFFFF;stroke:#5816BF;stroke-linecap:round;stroke-linejoin:round;stroke-miterlimit:10;}
	.st16{fill:#FFFFFF;}
	.st17{clip-path:url(#SVGID_6_);}
</style>
<g>
	<path class="st2" d="M46.2,49H14.7c-1.7,0-3.1-1.4-3.1-3.1V7.1C11.6,5.4,13,4,14.7,4h31.5c1.7,0,3.1,1.4,3.1,3.1v38.7
		C49.3,47.6,47.9,49,46.2,49z M14.7,5.6c-0.8,0-1.5,0.7-1.5,1.5v38.7c0,0.8,0.7,1.5,1.5,1.5h31.5c0.8,0,1.5-0.7,1.5-1.5V7.1
		c0-0.8-0.7-1.5-1.5-1.5H14.7z"/>
	<polyline class="st9" points="21.6,14.7 17.9,14.7 17.9,36.6 21.6,36.6 	"/>
	<polyline class="st9" points="39.7,36.6 43.4,36.6 43.4,14.7 39.7,14.7 	"/>
	<path class="st2" d="M37.9,25.9H23.5c-0.2,0-0.4-0.2-0.4-0.3c0-0.2,0.2-0.3,0.4-0.3h14.4c0.2,0,0.4,0.2,0.4,0.3
		C38.3,25.8,38.1,25.9,37.9,25.9z"/>
	<path class="st2" d="M32.9,28h-9.4c-0.2,0-0.4-0.2-0.4-0.3c0-0.2,0.2-0.3,0.4-0.3h9.4c0.2,0,0.4,0.2,0.4,0.3
		C33.4,27.8,33.2,28,32.9,28z"/>
	<path class="st2" d="M37.9,18.4H23.5c-0.2,0-0.4-0.2-0.4-0.3c0-0.2,0.2-0.3,0.4-0.3h14.4c0.2,0,0.4,0.2,0.4,0.3
		C38.3,18.2,38.1,18.4,37.9,18.4z"/>
	<path class="st2" d="M32.9,20.4h-9.4c-0.2,0-0.4-0.2-0.4-0.3c0-0.2,0.2-0.3,0.4-0.3h9.4c0.2,0,0.4,0.2,0.4,0.3
		C33.4,20.3,33.2,20.4,32.9,20.4z"/>
	<path class="st2" d="M37.9,33.4H23.5c-0.2,0-0.4-0.2-0.4-0.3s0.2-0.3,0.4-0.3h14.4c0.2,0,0.4,0.2,0.4,0.3S38.1,33.4,37.9,33.4z"/>
	<path class="st2" d="M32.9,35.4h-9.4c-0.2,0-0.4-0.2-0.4-0.3c0-0.2,0.2-0.3,0.4-0.3h9.4c0.2,0,0.4,0.2,0.4,0.3
		C33.4,35.3,33.2,35.4,32.9,35.4z"/>
</g>
</svg>
