<?xml version="1.0" encoding="utf-8"?>
<!-- Generator: Adobe Illustrator 21.0.0, SVG Export Plug-In . SVG Version: 6.00 Build 0)  -->
<svg version="1.1" id="Layer_1" xmlns="http://www.w3.org/2000/svg" xmlns:xlink="http://www.w3.org/1999/xlink" x="0px" y="0px"
	 viewBox="0 0 61.4 53" style="enable-background:new 0 0 61.4 53;" xml:space="preserve">
<style type="text/css">
	.st0{fill:none;stroke:#5816BF;stroke-width:2;stroke-linecap:round;stroke-linejoin:round;stroke-miterlimit:10;}
	.st1{fill:none;stroke:#5816BF;stroke-width:2;stroke-miterlimit:10;}
	.st2{fill:#5816BF;}
	.st3{fill:none;stroke:#5816BF;stroke-width:3;stroke-linecap:round;stroke-linejoin:round;stroke-miterlimit:10;}
	.st4{clip-path:url(#SVGID_2_);}
	.st5{fill:none;stroke:#5816BF;stroke-linecap:round;stroke-linejoin:round;stroke-miterlimit:10;}
	.st6{fill:none;}
	.st7{fill:none;stroke:#5816BF;stroke-width:2;stroke-linecap:round;stroke-miterlimit:10;}
	.st8{fill:#5816BF;stroke:#5816BF;stroke-width:0.75;stroke-miterlimit:10;}
	.st9{fill:none;stroke:#5816BF;stroke-miterlimit:10;}
	.st10{fill:none;stroke:#5816BF;stroke-width:0.75;stroke-linecap:round;stroke-linejoin:round;stroke-miterlimit:10;}
	.st11{fill:none;stroke:#5816BF;stroke-width:0.5;stroke-linecap:round;stroke-linejoin:round;stroke-miterlimit:10;}
	.st12{fill:none;stroke:#5816BF;stroke-linecap:round;stroke-miterlimit:10;}
	.st13{fill:#5816BF;stroke:#5816BF;stroke-width:0.25;stroke-miterlimit:10;}
	.st14{clip-path:url(#SVGID_4_);}
	.st15{fill:#FFFFFF;stroke:#5816BF;stroke-linecap:round;stroke-linejoin:round;stroke-miterlimit:10;}
	.st16{fill:#FFFFFF;}
	.st17{clip-path:url(#SVGID_6_);}
</style>
<g>
	<path class="st2" d="M46.2,48.9H14.7c-1.7,0-3.1-1.4-3.1-3.1V7.1C11.6,5.4,13,4,14.7,4h31.5c1.7,0,3.1,1.4,3.1,3.1v38.7
		C49.3,47.5,47.9,48.9,46.2,48.9z M14.7,5.6c-0.8,0-1.5,0.7-1.5,1.5v38.7c0,0.8,0.7,1.5,1.5,1.5h31.5c0.8,0,1.5-0.7,1.5-1.5V7.1
		c0-0.8-0.7-1.5-1.5-1.5H14.7z"/>
	<g>
		<defs>
			<path id="SVGID_3_" d="M45.4,47.7H15.5c-1.2,0-2.2-1-2.2-2.2V17.1c0-1.2,1-2.2,2.2-2.2h29.9c1.2,0,2.2,1,2.2,2.2v28.4
				C47.6,46.7,46.6,47.7,45.4,47.7z"/>
		</defs>
		<clipPath id="SVGID_2_">
			<use xlink:href="#SVGID_3_"  style="overflow:visible;"/>
		</clipPath>
		<g class="st4">
			<g>
				<path class="st2" d="M42.1,24.1L34.3,18c-0.1-0.1-0.2-0.1-0.2-0.1c-0.1-0.1-0.2-0.2-0.4-0.3c-0.1,0-0.2,0-0.3,0
					c-0.5-0.1-1.1,0.1-1.5,0.4c0-0.2,0-0.3-0.2-0.4l-0.7-0.5c-0.4-0.3-0.9-0.4-1.4-0.3c-0.5,0.1-1,0.4-1.3,0.9l-7.3,13.1
					c-0.1,0.2,0,0.5,0.2,0.6c0,0,0,0,0,0l-0.9,1.1c-0.1,0.1-0.2,0.3-0.2,0.5l1.1-0.1l11.1-14.1c0.2-0.2,0.4-0.3,0.6-0.3
					c0,0,0.1,0,0.1,0l-1.3,10.8l-9,3.6l3-0.2l6.9-2.7L34,19l7.5,5.9c0.4,0.3,0.5,0.9,0.2,1.3l-4.8,6.1l1.3-0.1l4.2-5.4
					C43,25.9,42.9,24.7,42.1,24.1z M23.1,29.2l6.2-11c0.1-0.2,0.4-0.4,0.6-0.5c0.2-0.1,0.5,0,0.7,0.1l0.7,0.5
					c0.1,0.1,0.2,0.1,0.3,0.1L23.1,29.2z"/>
			</g>
			<polyline class="st5" points="13.3,35.8 13.3,53.3 47.4,53.3 47.4,35.4 			"/>
			<polygon class="st5" points="13,35.1 9.5,42.9 51.1,42.9 47.1,35.1 			"/>
			<polygon class="st15" points="43.2,27.8 48.4,28.8 54.1,36.3 47.7,35.1 			"/>
			<polygon class="st15" points="18.8,27.5 13.5,28.5 7.8,35.9 14.2,34.8 			"/>
			<path class="st2" d="M48.3,34.8l-4.6-7.4c-0.1-0.2-0.4-0.4-0.6-0.4h-1.5L41,28.2l2.1,0.1l3.4,6.3l-31.7-0.2l4.2-6.3l3.1-0.1
				c0.3-0.4,0.3-0.6,0.7-1h-4.1c-0.3,0-0.5,0.1-0.6,0.3l-4.6,7.4c-0.1,0.2-0.1,0.5,0,0.8c0.1,0.2,0.4-0.6,0.6-0.6h33.6
				c0.3,0,0.5,0.9,0.6,0.6C48.5,35.4,48.5,35.1,48.3,34.8z"/>
		</g>
	</g>
	<path class="st2" d="M29.7,10.4H17.6c-0.2,0-0.4-0.2-0.4-0.4c0-0.2,0.2-0.4,0.4-0.4h12.1c0.2,0,0.4,0.2,0.4,0.4
		C30.1,10.2,29.9,10.4,29.7,10.4z"/>
	<path class="st2" d="M25.6,13h-8c-0.2,0-0.4-0.2-0.4-0.4s0.2-0.4,0.4-0.4h8c0.2,0,0.4,0.2,0.4,0.4S25.8,13,25.6,13z"/>
</g>
</svg>
