<svg xmlns="http://www.w3.org/2000/svg" viewBox="0 0 60.98 52.67"><defs><style>.cls-1{fill:#5816bf;}</style></defs><title>id-flex-logo</title><g id="Layer_1" data-name="Layer 1"><path class="cls-1" d="M45.12,47.74H15.85A2.88,2.88,0,0,1,13,44.86v-36A2.88,2.88,0,0,1,15.85,6H45.12A2.88,2.88,0,0,1,48,8.88v36A2.88,2.88,0,0,1,45.12,47.74ZM15.85,7.49a1.39,1.39,0,0,0-1.39,1.39v36a1.39,1.39,0,0,0,1.39,1.39H45.12a1.39,1.39,0,0,0,1.39-1.39v-36a1.39,1.39,0,0,0-1.39-1.39Z"/><path class="cls-1" d="M40.55,37.68H28.62a.37.37,0,0,1,0-.75H40.55a.37.37,0,1,1,0,.75Z"/><path class="cls-1" d="M36.45,39.92H28.62a.37.37,0,0,1,0-.75h7.83a.37.37,0,1,1,0,.75Z"/><path class="cls-1" d="M40.55,29.48H28.62a.37.37,0,0,1,0-.75H40.55a.37.37,0,1,1,0,.75Z"/><path class="cls-1" d="M36.45,31.72H28.62a.37.37,0,0,1,0-.75h7.83a.37.37,0,0,1,0,.75Z"/><path class="cls-1" d="M40.55,21.28H28.62a.37.37,0,0,1,0-.75H40.55a.37.37,0,1,1,0,.75Z"/><path class="cls-1" d="M36.45,23.52H28.62a.37.37,0,1,1,0-.75h7.83a.37.37,0,0,1,0,.75Z"/><path class="cls-1" d="M40.55,13.08H28.62a.37.37,0,0,1,0-.75H40.55a.37.37,0,1,1,0,.75Z"/><path class="cls-1" d="M36.45,15.32H28.62a.37.37,0,0,1,0-.75h7.83a.37.37,0,0,1,0,.75Z"/><path class="cls-1" d="M20.79,16.81a3,3,0,1,1,3-3A3,3,0,0,1,20.79,16.81Zm0-5.22A2.24,2.24,0,1,0,23,13.83,2.24,2.24,0,0,0,20.79,11.59Z"/><path class="cls-1" d="M20.79,25a3,3,0,1,1,3-3A3,3,0,0,1,20.79,25Zm0-5.22A2.24,2.24,0,1,0,23,22,2.24,2.24,0,0,0,20.79,19.79Z"/><path class="cls-1" d="M20.79,33.21a3,3,0,1,1,3-3A3,3,0,0,1,20.79,33.21Zm0-5.22A2.24,2.24,0,1,0,23,30.23,2.24,2.24,0,0,0,20.79,28Z"/><path class="cls-1" d="M20.79,41.41a3,3,0,1,1,3-3A3,3,0,0,1,20.79,41.41Zm0-5.22A2.24,2.24,0,1,0,23,38.42,2.24,2.24,0,0,0,20.79,36.19Z"/><polygon class="cls-1" points="20.42 14.73 17.55 11.85 18.07 11.33 20.42 13.67 25 9.09 25.53 9.62 20.42 14.73"/><polygon class="cls-1" points="20.42 22.93 17.55 20.05 18.07 19.53 20.42 21.87 25 17.29 25.53 17.82 20.42 22.93"/><polygon class="cls-1" points="20.42 31.13 17.55 28.25 18.07 27.73 20.42 30.07 25 25.49 25.53 26.02 20.42 31.13"/></g></svg>