<?xml version="1.0" encoding="utf-8"?>
<!-- Generator: Adobe Illustrator 21.0.0, SVG Export Plug-In . SVG Version: 6.00 Build 0)  -->
<svg version="1.1" id="Layer_1" xmlns="http://www.w3.org/2000/svg" xmlns:xlink="http://www.w3.org/1999/xlink" x="0px" y="0px"
	 viewBox="0 0 67 74.3" style="enable-background:new 0 0 67 74.3;" xml:space="preserve">
<style type="text/css">
	.st0{fill:none;stroke:#5816BF;stroke-width:2;stroke-linecap:round;stroke-linejoin:round;stroke-miterlimit:10;}
	.st1{fill:none;stroke:#5816BF;stroke-width:2;stroke-miterlimit:10;}
	.st2{fill:#5816BF;}
	.st3{fill:none;stroke:#5816BF;stroke-width:3;stroke-linecap:round;stroke-linejoin:round;stroke-miterlimit:10;}
	.st4{clip-path:url(#SVGID_2_);}
	.st5{fill:none;stroke:#5816BF;stroke-linecap:round;stroke-linejoin:round;stroke-miterlimit:10;}
	.st6{fill:none;}
	.st7{fill:none;stroke:#5816BF;stroke-width:2;stroke-linecap:round;stroke-miterlimit:10;}
	.st8{fill:#5816BF;stroke:#5816BF;stroke-width:0.75;stroke-miterlimit:10;}
	.st9{fill:none;stroke:#5816BF;stroke-miterlimit:10;}
	.st10{fill:none;stroke:#5816BF;stroke-width:0.75;stroke-linecap:round;stroke-linejoin:round;stroke-miterlimit:10;}
	.st11{fill:none;stroke:#5816BF;stroke-width:0.5;stroke-linecap:round;stroke-linejoin:round;stroke-miterlimit:10;}
	.st12{fill:none;stroke:#5816BF;stroke-linecap:round;stroke-miterlimit:10;}
	.st13{fill:#5816BF;stroke:#5816BF;stroke-width:0.25;stroke-miterlimit:10;}
	.st14{clip-path:url(#SVGID_4_);}
	.st15{fill:#FFFFFF;stroke:#5816BF;stroke-linecap:round;stroke-linejoin:round;stroke-miterlimit:10;}
</style>
<g>
	<path class="st2" d="M53,61.3h-2c0-8.8-9.9-16-22-16s-22,7.2-22,16H5c0-9.9,10.8-18,24-18S53,51.4,53,61.3z"/>
	<path class="st2" d="M29,40.7c-7.6,0-13.8-6.2-13.8-13.8c0-7.6,6.2-13.8,13.8-13.8c6.9,0,12.7,5.2,13.6,11.8
		c0.1,0.6,0.1,1.3,0.1,1.9C42.7,34.5,36.6,40.7,29,40.7z M29,15.2c-6.5,0-11.8,5.3-11.8,11.8S22.5,38.7,29,38.7s11.8-5.3,11.8-11.8
		c0-0.5,0-1-0.1-1.5C39.9,19.6,35,15.2,29,15.2z"/>
	<path class="st2" d="M53.4,19.2c-5,0-9.1-4.1-9.1-9.1S48.3,1,53.4,1s9.1,4.1,9.1,9.1S58.4,19.2,53.4,19.2z M53.4,3
		c-3.9,0-7.1,3.2-7.1,7.1s3.2,7.1,7.1,7.1s7.1-3.2,7.1-7.1S57.3,3,53.4,3z"/>
	<rect x="45.5" y="9.5" transform="matrix(0.7071 -0.7071 0.7071 0.7071 8.1324 40.7133)" class="st2" width="15.4" height="2"/>
</g>
</svg>
