<svg xmlns="http://www.w3.org/2000/svg" viewBox="0 0 60.98 52.67"><defs><style>.cls-1{fill:#5816bf;}</style></defs><title>id-flex-logo [Recovered]</title><g id="Layer_1" data-name="Layer 1"><path class="cls-1" d="M53.54,37.5H6.74a.5.5,0,0,1-.5-.5V14a.5.5,0,0,1,.5-.5h46.8a.5.5,0,0,1,.5.5V37A.5.5,0,0,1,53.54,37.5Zm-46.3-1H53v-22H7.24Z"/><path class="cls-1" d="M51.14,13.22a.5.5,0,0,1-.5-.5V10h-41v2.72a.5.5,0,0,1-1,0V9.5a.5.5,0,0,1,.5-.5h42a.5.5,0,0,1,.5.5v3.22A.5.5,0,0,1,51.14,13.22Z"/><path class="cls-1" d="M49.14,8.73a.5.5,0,0,1-.5-.5V5.5h-37V8.23a.5.5,0,1,1-1,0V5a.5.5,0,0,1,.5-.5h38a.5.5,0,0,1,.5.5V8.23A.5.5,0,0,1,49.14,8.73Z"/><path class="cls-1" d="M30.65,29.63a24.51,24.51,0,0,1-2.9-.27l-.62-.08a.5.5,0,0,1,.12-1l.62.08c2,.26,3.57.46,4.24-.08a1.47,1.47,0,0,0,.45-1.07c.12-1.28-.09-1.72-3-2.07a2.63,2.63,0,0,1-2.23-1.31,2.79,2.79,0,0,1,.12-2.48c1.28-2.31,5.65-.73,5.83-.66a.5.5,0,0,1-.35.94c-1-.38-3.89-1.09-4.61.21a1.79,1.79,0,0,0-.1,1.54,1.74,1.74,0,0,0,1.46.77c2.88.34,4.13.87,3.92,3.15a2.4,2.4,0,0,1-.82,1.76A3.24,3.24,0,0,1,30.65,29.63Z"/><path class="cls-1" d="M30.14,31.65a.5.5,0,0,1-.5-.5V18.58a.5.5,0,0,1,1,0V31.15A.5.5,0,0,1,30.14,31.65Z"/><path class="cls-1" d="M29.5,47h0a.5.5,0,0,1-.36-.16l-5-5.5a.5.5,0,1,1,.74-.67l4.65,5.11,5.13-5.13a.5.5,0,0,1,.71.71l-5.5,5.5A.5.5,0,0,1,29.5,47Z"/></g></svg>