<svg xmlns="http://www.w3.org/2000/svg" viewBox="0 0 60.98 52.67"><defs><style>.cls-1{fill:#5816bf;}</style></defs><title>id-flex-logo</title><g id="Layer_1" data-name="Layer 1"><path class="cls-1" d="M45.21,47.07H16.4a2.84,2.84,0,0,1-2.83-2.83V8.83A2.84,2.84,0,0,1,16.4,6H38.14a.73.73,0,0,1,.52.22l9.17,9.35a.73.73,0,0,1,.21.51V44.24A2.84,2.84,0,0,1,45.21,47.07ZM16.4,7.47A1.37,1.37,0,0,0,15,8.83V44.24a1.37,1.37,0,0,0,1.37,1.37H45.21a1.37,1.37,0,0,0,1.37-1.37V16.38L37.83,7.47Z"/><path class="cls-1" d="M47.31,17H37.77a.73.73,0,0,1-.73-.73V7.47a.73.73,0,0,1,1.47,0v8.07h8.8a.73.73,0,0,1,0,1.47Z"/><path class="cls-1" d="M25.4,39a.73.73,0,0,1-.73-.73V23.6a.73.73,0,0,1,1.47,0V38.27A.73.73,0,0,1,25.4,39Z"/><path class="cls-1" d="M20.81,25.07a.73.73,0,0,1-.52-1.25l4.77-4.77a.73.73,0,0,1,1,0l4.4,4.4a.73.73,0,0,1-1,1l-3.88-3.88-4.25,4.25A.73.73,0,0,1,20.81,25.07Z"/><path class="cls-1" d="M34.2,35a.73.73,0,0,1-.73-.73V19.57a.73.73,0,0,1,1.47,0V34.24A.73.73,0,0,1,34.2,35Z"/><path class="cls-1" d="M34,39a.73.73,0,0,1-.52-.21l-4.4-4.4a.73.73,0,0,1,1-1L34,37.24,38.26,33a.73.73,0,1,1,1,1l-4.77,4.77A.73.73,0,0,1,34,39Z"/></g></svg>