<?xml version="1.0" encoding="utf-8"?>
<!-- Generator: Adobe Illustrator 21.0.0, SVG Export Plug-In . SVG Version: 6.00 Build 0)  -->
<svg version="1.1" xmlns="http://www.w3.org/2000/svg" xmlns:xlink="http://www.w3.org/1999/xlink" x="0px" y="0px"
	 viewBox="0 0 61 52.7" style="enable-background:new 0 0 61 52.7;" xml:space="preserve">
<style type="text/css">
	.st0{clip-path:url(#SVGID_2_);}
	.st1{clip-path:url(#SVGID_4_);}
	.st2{clip-path:url(#SVGID_6_);}
	.st3{clip-path:url(#SVGID_8_);}
	.st4{clip-path:url(#SVGID_10_);}
	.st5{clip-path:url(#SVGID_12_);}
	.st6{clip-path:url(#SVGID_14_);}
	.st7{clip-path:url(#SVGID_16_);}
	.st8{clip-path:url(#SVGID_18_);}
	.st9{opacity:0.49;fill:none;stroke:#232323;stroke-miterlimit:10;}
	.st10{clip-path:url(#SVGID_20_);}
	.st11{clip-path:url(#SVGID_22_);}
	.st12{fill:#33373A;}
	.st13{fill:#2A2335;}
	.st14{opacity:0.31;fill:#3F3F3F;}
	.st15{opacity:0.31;fill:#C1C6C9;}
	.st16{fill:#FFCB04;}
	.st17{fill:#2E364C;}
	.st18{clip-path:url(#SVGID_24_);}
	.st19{fill:#FFFFFF;}
	.st20{opacity:0.86;}
	.st21{fill:#232323;}
	.st22{fill:#5816BF;}
	.st23{opacity:0.31;fill:#CCCCCC;}
	.st24{opacity:0.57;}
	.st25{fill:none;stroke:#431B6D;stroke-miterlimit:10;}
	.st26{opacity:0.63;fill:none;stroke:#CCCCCC;stroke-width:2;stroke-miterlimit:10;}
	.st27{fill:#0A0A0A;}
	.st28{fill:#2B2B2B;}
	.st29{fill:none;stroke:#FFFFFF;stroke-miterlimit:10;}
	.st30{fill:none;stroke:#FFCB04;stroke-miterlimit:10;}
	.st31{opacity:0.57;fill:#33373A;}
	.st32{clip-path:url(#SVGID_26_);}
	.st33{clip-path:url(#SVGID_28_);}
	.st34{clip-path:url(#SVGID_30_);}
	.st35{fill:none;stroke:#5816BF;stroke-width:2;stroke-linecap:round;stroke-linejoin:round;stroke-miterlimit:10;}
	.st36{fill:none;stroke:#5816BF;stroke-linecap:round;stroke-linejoin:round;stroke-miterlimit:10;}
	.st37{fill:#444444;}
	.st38{opacity:0.78;fill:#1B1B1E;}
	.st39{fill:#280972;}
	.st40{fill:#240868;}
	.st41{opacity:0.12;fill:#6B677F;}
	.st42{opacity:0.72;fill:#280972;}
	.st43{opacity:0.72;fill:#FFFFFF;}
	.st44{opacity:0.72;fill:#605C6D;}
	.st45{fill:#514B6B;}
	.st46{opacity:0.72;fill:#251160;}
	.st47{fill:none;stroke:#FFFFFF;stroke-width:0.75;stroke-miterlimit:10;}
	.st48{opacity:0.72;fill:#021E16;}
	.st49{opacity:0.65;fill:#605C6D;}
	.st50{opacity:0.72;fill:#FFCB04;}
	.st51{fill:none;stroke:#FFCB04;stroke-width:0.75;stroke-miterlimit:10;}
	.st52{fill:#03916C;}
	.st53{opacity:0.72;fill:#333333;}
	.st54{opacity:0.72;fill:#232323;}
	.st55{opacity:0.28;}
	.st56{clip-path:url(#SVGID_32_);}
	.st57{clip-path:url(#SVGID_34_);}
	.st58{clip-path:url(#SVGID_36_);}
	.st59{clip-path:url(#SVGID_38_);}
	.st60{fill:none;stroke:#ADADAD;stroke-width:2;stroke-miterlimit:10;}
	.st61{fill:none;stroke:#ADADAD;stroke-width:2;stroke-linecap:round;stroke-linejoin:round;stroke-miterlimit:10;}
	.st62{fill:none;stroke:#ADADAD;stroke-linecap:round;stroke-linejoin:round;stroke-miterlimit:10;}
	.st63{fill:none;stroke:#ADADAD;stroke-miterlimit:10;}
	.st64{fill:#ADADAD;}
	.st65{opacity:0.76;}
	.st66{clip-path:url(#SVGID_40_);}
	.st67{fill:none;stroke:#FFFFFF;stroke-width:0.5;stroke-miterlimit:10;}
	.st68{fill:#31333A;}
	.st69{clip-path:url(#SVGID_42_);}
	.st70{opacity:0.42;}
	.st71{fill:none;stroke:#03916C;stroke-width:2;stroke-miterlimit:10;}
	.st72{fill:none;stroke:#03916C;stroke-linecap:round;stroke-linejoin:round;stroke-miterlimit:10;}
	.st73{fill:#221059;}
	.st74{clip-path:url(#SVGID_44_);}
	.st75{opacity:0.53;}
	.st76{fill:none;stroke:#280972;stroke-width:2;stroke-linecap:round;stroke-linejoin:round;stroke-miterlimit:10;}
	.st77{fill:#FFF806;}
	.st78{clip-path:url(#SVGID_46_);}
	.st79{clip-path:url(#SVGID_48_);}
	.st80{fill:#4D3FA0;}
	.st81{fill:none;stroke:#FFFFFF;stroke-width:2;stroke-linecap:round;stroke-linejoin:round;stroke-miterlimit:10;}
	.st82{clip-path:url(#SVGID_50_);}
	.st83{clip-path:url(#SVGID_52_);}
	.st84{fill:none;stroke:#03916C;stroke-width:0.75;stroke-miterlimit:10;}
	.st85{fill:#22BA8E;}
	.st86{clip-path:url(#SVGID_54_);}
	.st87{opacity:0.82;}
	.st88{opacity:0.67;fill:none;stroke:#CCCCCC;stroke-width:2;stroke-miterlimit:10;}
	.st89{fill:none;stroke:#FFFFFF;stroke-width:2;stroke-miterlimit:10;}
	.st90{fill:#7B7989;}
	.st91{fill:none;stroke:#7B7989;stroke-miterlimit:10;}
	.st92{fill:none;stroke:#221059;stroke-linecap:round;stroke-linejoin:round;stroke-miterlimit:10;}
	.st93{fill:none;stroke:#221059;stroke-width:0.75;stroke-miterlimit:10;}
	.st94{fill:#242526;}
	.st95{clip-path:url(#SVGID_56_);}
	.st96{fill:#EAF1F4;}
	.st97{fill:#0CBFA1;}
	.st98{fill:none;stroke:#0CBFA1;stroke-miterlimit:10;}
	.st99{fill:none;stroke:#7C1A36;stroke-miterlimit:10;}
	.st100{opacity:0.72;fill:#363442;}
	.st101{fill:none;stroke:#FFFFFF;stroke-linecap:round;stroke-linejoin:round;stroke-miterlimit:10;}
	.st102{clip-path:url(#SVGID_58_);}
	.st103{fill:#1E1E1E;}
	.st104{opacity:0.75;fill:#1E1E1E;}
	.st105{clip-path:url(#SVGID_60_);}
	.st106{fill:#C1083D;}
	.st107{fill:none;stroke:#FFCB04;stroke-width:0.75;stroke-linecap:round;stroke-linejoin:round;stroke-miterlimit:10;}
	.st108{clip-path:url(#SVGID_62_);}
	.st109{fill:#15B771;}
	.st110{opacity:0.52;}
	.st111{opacity:0.63;fill:#666666;}
	.st112{opacity:0.84;}
	.st113{fill:#EF2546;}
	.st114{fill:none;stroke:#EF2546;stroke-miterlimit:10;}
	.st115{clip-path:url(#SVGID_64_);}
	.st116{fill:#2D2D2D;}
	.st117{opacity:0.61;}
	.st118{fill:#141414;}
	.st119{clip-path:url(#SVGID_66_);}
	.st120{clip-path:url(#SVGID_68_);}
	.st121{opacity:0.71;}
	.st122{fill:#40424C;}
	.st123{opacity:0.67;}
	.st124{clip-path:url(#SVGID_70_);}
	.st125{opacity:0.55;}
	.st126{fill:#111111;}
	.st127{opacity:0.45;}
	.st128{fill:#4E5472;}
	.st129{clip-path:url(#SVGID_72_);}
	.st130{fill:#4C4C4C;}
	.st131{opacity:0.58;}
	.st132{fill:none;stroke:#4C4C4C;stroke-width:0.5;stroke-miterlimit:10;}
	.st133{opacity:0.22;fill:#7F86A0;}
	.st134{clip-path:url(#SVGID_74_);}
	.st135{clip-path:url(#SVGID_76_);}
	.st136{clip-path:url(#SVGID_78_);fill:#15B771;}
	.st137{clip-path:url(#SVGID_80_);}
	.st138{clip-path:url(#SVGID_82_);fill:#15B771;}
	.st139{clip-path:url(#SVGID_84_);fill:#15B771;}
	.st140{clip-path:url(#SVGID_86_);}
	.st141{clip-path:url(#SVGID_88_);}
	.st142{fill:#ED8A26;}
	.st143{clip-path:url(#SVGID_90_);}
	.st144{opacity:0.63;}
	.st145{fill:#666666;}
	.st146{fill:none;stroke:#5816BF;stroke-width:2;stroke-miterlimit:10;}
	.st147{fill:none;stroke:#221059;stroke-width:2;stroke-linecap:round;stroke-linejoin:round;stroke-miterlimit:10;}
	.st148{fill:none;stroke:#000000;stroke-width:2;stroke-linecap:round;stroke-linejoin:round;stroke-miterlimit:10;}
	.st149{clip-path:url(#SVGID_92_);}
	.st150{fill:none;stroke:#5816BF;stroke-width:2;stroke-linecap:round;stroke-miterlimit:10;}
	.st151{fill:#5816BF;stroke:#5816BF;stroke-width:0.75;stroke-miterlimit:10;}
	.st152{clip-path:url(#SVGID_94_);}
	.st153{clip-path:url(#SVGID_96_);}
	.st154{clip-path:url(#SVGID_98_);}
	.st155{clip-path:url(#SVGID_98_);fill:none;}
	.st156{fill:#39167C;}
	.st157{fill:none;stroke:#33373A;stroke-width:0.75;stroke-miterlimit:10;}
	.st158{fill:#1AC688;}
	.st159{fill:none;stroke:#ED8A26;stroke-miterlimit:10;}
	.st160{fill:none;stroke:#15B771;stroke-width:2;stroke-linecap:round;stroke-linejoin:round;stroke-miterlimit:10;}
	.st161{clip-path:url(#SVGID_100_);}
	.st162{clip-path:url(#SVGID_102_);}
	.st163{clip-path:url(#SVGID_102_);fill:none;}
	.st164{clip-path:url(#SVGID_104_);}
	.st165{clip-path:url(#SVGID_106_);}
	.st166{clip-path:url(#SVGID_108_);}
	.st167{fill:none;stroke:#5816BF;stroke-miterlimit:10;}
	.st168{clip-path:url(#SVGID_110_);}
	.st169{fill:#67679B;}
	.st170{fill:none;stroke:#5816BF;stroke-width:3;stroke-linecap:round;stroke-linejoin:round;stroke-miterlimit:10;}
	.st171{clip-path:url(#SVGID_112_);}
	.st172{fill:none;}
</style>
<g id="Layer_2">
</g>
<g id="Layer_1">
	<g>
		<path class="st22" d="M53.1,22.1H8.4c-0.4,0-0.8-0.3-0.9-0.7c-0.1-0.4,0.1-0.8,0.4-1.1L29.7,6.9c0.3-0.2,0.7-0.2,1,0l22.8,13.5
			c0.4,0.2,0.5,0.7,0.4,1.1C53.9,21.8,53.5,22.1,53.1,22.1z M11.8,20.2h37.8L30.2,8.8L11.8,20.2z"/>
		<g>
			<path class="st22" d="M28.2,41.4H24c-0.5,0-0.9-0.4-0.9-0.9V22c0-0.5,0.4-0.9,0.9-0.9h4.2c0.5,0,0.9,0.4,0.9,0.9v18.5
				C29.1,41,28.7,41.4,28.2,41.4z M24.9,39.5h2.3V22.9h-2.3V39.5z"/>
			<path class="st22" d="M18.9,41.4h-4.2c-0.5,0-0.9-0.4-0.9-0.9V22c0-0.5,0.4-0.9,0.9-0.9h4.2c0.5,0,0.9,0.4,0.9,0.9v18.5
				C19.9,41,19.4,41.4,18.9,41.4z M15.6,39.5H18V22.9h-2.3V39.5z"/>
			<path class="st22" d="M37.5,41.4h-4.2c-0.5,0-0.9-0.4-0.9-0.9V22c0-0.5,0.4-0.9,0.9-0.9h4.2c0.5,0,0.9,0.4,0.9,0.9v18.5
				C38.5,41,38.1,41.4,37.5,41.4z M34.3,39.5h2.3V22.9h-2.3V39.5z"/>
			<path class="st22" d="M46.8,41.4h-4.2c-0.5,0-0.9-0.4-0.9-0.9V22c0-0.5,0.4-0.9,0.9-0.9h4.2c0.5,0,0.9,0.4,0.9,0.9v18.5
				C47.7,41,47.3,41.4,46.8,41.4z M43.5,39.5h2.3V22.9h-2.3V39.5z"/>
		</g>
		<path class="st22" d="M50.7,46.5h-40c-0.5,0-0.8-0.4-0.8-0.9v-5.1c0-0.5,0.4-0.9,0.8-0.9h40c0.5,0,0.8,0.4,0.8,0.9v5.1
			C51.6,46.1,51.2,46.5,50.7,46.5z M11.6,44.6h38.3v-3.2H11.6V44.6z"/>
	</g>
</g>
</svg>
