<?xml version="1.0" encoding="utf-8"?>
<!-- Generator: Adobe Illustrator 21.0.0, SVG Export Plug-In . SVG Version: 6.00 Build 0)  -->
<svg version="1.1" id="Layer_1" xmlns="http://www.w3.org/2000/svg" xmlns:xlink="http://www.w3.org/1999/xlink" x="0px" y="0px"
	 viewBox="0 0 61.4 53" style="enable-background:new 0 0 61.4 53;" xml:space="preserve">
<style type="text/css">
	.st0{fill:none;stroke:#5816BF;stroke-width:2;stroke-linecap:round;stroke-linejoin:round;stroke-miterlimit:10;}
	.st1{fill:none;stroke:#5816BF;stroke-width:2;stroke-miterlimit:10;}
	.st2{fill:#5816BF;}
	.st3{fill:none;stroke:#5816BF;stroke-width:3;stroke-linecap:round;stroke-linejoin:round;stroke-miterlimit:10;}
	.st4{clip-path:url(#SVGID_2_);}
	.st5{fill:none;stroke:#5816BF;stroke-linecap:round;stroke-linejoin:round;stroke-miterlimit:10;}
	.st6{fill:none;}
	.st7{fill:none;stroke:#5816BF;stroke-width:2;stroke-linecap:round;stroke-miterlimit:10;}
	.st8{fill:#5816BF;stroke:#5816BF;stroke-width:0.75;stroke-miterlimit:10;}
	.st9{fill:none;stroke:#5816BF;stroke-miterlimit:10;}
	.st10{fill:none;stroke:#5816BF;stroke-width:0.75;stroke-linecap:round;stroke-linejoin:round;stroke-miterlimit:10;}
	.st11{fill:none;stroke:#5816BF;stroke-width:0.5;stroke-linecap:round;stroke-linejoin:round;stroke-miterlimit:10;}
	.st12{fill:none;stroke:#5816BF;stroke-linecap:round;stroke-miterlimit:10;}
	.st13{fill:#5816BF;stroke:#5816BF;stroke-width:0.25;stroke-miterlimit:10;}
	.st14{clip-path:url(#SVGID_4_);}
	.st15{fill:#FFFFFF;stroke:#5816BF;stroke-linecap:round;stroke-linejoin:round;stroke-miterlimit:10;}
	.st16{fill:#FFFFFF;}
	.st17{clip-path:url(#SVGID_6_);}
</style>
<g>
	<g>
		<path class="st2" d="M47.7,26.5H13.1c-0.4,0-0.8-0.3-0.8-0.8v-17c0-0.4,0.3-0.8,0.8-0.8h34.5c0.4,0,0.8,0.3,0.8,0.8v17
			C48.4,26.2,48.1,26.5,47.7,26.5z M13.9,25h33V9.5h-33V25z"/>
		<path class="st2" d="M30.8,20.3c-0.6,0-1.3-0.1-2.1-0.2L28.2,20c-0.2,0-0.4-0.2-0.3-0.4c0-0.2,0.2-0.4,0.4-0.3l0.5,0.1
			c1.5,0.2,2.6,0.3,3.1-0.1c0.2-0.2,0.3-0.4,0.3-0.8c0.1-0.9-0.1-1.3-2.2-1.5c-1-0.1-1.5-0.6-1.7-1c-0.4-0.7-0.1-1.5,0.1-1.8
			c1-1.7,4.2-0.5,4.3-0.5c0.2,0.1,0.3,0.3,0.2,0.5c-0.1,0.2-0.3,0.3-0.5,0.2c-0.8-0.3-2.9-0.8-3.4,0.1c-0.1,0.2-0.3,0.7-0.1,1.1
			c0.2,0.3,0.5,0.5,1.1,0.6c2.1,0.3,3.1,0.6,2.9,2.3c-0.1,0.6-0.3,1-0.6,1.3C31.9,20.2,31.4,20.3,30.8,20.3z"/>
		<path class="st2" d="M30.4,21.8c-0.2,0-0.4-0.2-0.4-0.4v-9.3c0-0.2,0.2-0.4,0.4-0.4c0.2,0,0.4,0.2,0.4,0.4v9.3
			C30.8,21.6,30.6,21.8,30.4,21.8z"/>
	</g>
	<path class="st2" d="M15.9,8.7c-0.4,0-0.8-0.3-0.9-0.8c-0.1-0.5,0.3-0.9,0.7-1l28.8-4c0.3,0,0.5,0,0.7,0.2c0.2,0.2,0.3,0.4,0.3,0.7
		l-0.1,4.3c0,0.5-0.4,0.9-0.9,0.9c-0.5,0-0.9-0.4-0.9-0.9l0-3.3L16,8.6C16,8.7,15.9,8.7,15.9,8.7z"/>
	<path class="st9" d="M34.2,47.8h-7.5c-0.9,0-1.6-0.7-1.6-1.6v0c0-0.9,0.7-1.6,1.6-1.6h7.5c0.9,0,1.6,0.7,1.6,1.6v0
		C35.8,47,35.1,47.8,34.2,47.8z"/>
	<path class="st9" d="M34.2,44.7h-7.5c-0.9,0-1.6-0.7-1.6-1.6l0,0c0-0.9,0.7-1.6,1.6-1.6h7.5c0.9,0,1.6,0.7,1.6,1.6l0,0
		C35.8,43.9,35.1,44.7,34.2,44.7z"/>
	<path class="st9" d="M34.2,40.8h-7.5c-0.9,0-1.6-0.7-1.6-1.6v0c0-0.9,0.7-1.6,1.6-1.6h7.5c0.9,0,1.6,0.7,1.6,1.6v0
		C35.8,40,35.1,40.8,34.2,40.8z"/>
	<path class="st9" d="M20.2,47.8h-7.5c-0.9,0-1.6-0.7-1.6-1.6v0c0-0.9,0.7-1.6,1.6-1.6h7.5c0.9,0,1.6,0.7,1.6,1.6v0
		C21.8,47,21.1,47.8,20.2,47.8z"/>
	<path class="st9" d="M20.2,44.7h-7.5c-0.9,0-1.6-0.7-1.6-1.6l0,0c0-0.9,0.7-1.6,1.6-1.6h7.5c0.9,0,1.6,0.7,1.6,1.6l0,0
		C21.8,43.9,21.1,44.7,20.2,44.7z"/>
	<path class="st9" d="M48.2,47.8h-7.5c-0.9,0-1.6-0.7-1.6-1.6v0c0-0.9,0.7-1.6,1.6-1.6h7.5c0.9,0,1.6,0.7,1.6,1.6v0
		C49.8,47,49.1,47.8,48.2,47.8z"/>
	<path class="st9" d="M48.2,44.7h-7.5c-0.9,0-1.6-0.7-1.6-1.6l0,0c0-0.9,0.7-1.6,1.6-1.6h7.5c0.9,0,1.6,0.7,1.6,1.6l0,0
		C49.8,43.9,49.1,44.7,48.2,44.7z"/>
	<path class="st9" d="M48.2,41.7h-7.5c-0.9,0-1.6-0.7-1.6-1.6l0,0c0-0.9,0.7-1.6,1.6-1.6h7.5c0.9,0,1.6,0.7,1.6,1.6l0,0
		C49.8,40.9,49.1,41.7,48.2,41.7z"/>
	<path class="st9" d="M34.2,36.9h-7.5c-0.9,0-1.6-0.7-1.6-1.6v0c0-0.9,0.7-1.6,1.6-1.6h7.5c0.9,0,1.6,0.7,1.6,1.6v0
		C35.8,36.2,35.1,36.9,34.2,36.9z"/>
</g>
</svg>
