<?xml version="1.0" encoding="utf-8"?>
<!-- Generator: Adobe Illustrator 21.0.0, SVG Export Plug-In . SVG Version: 6.00 Build 0)  -->
<svg version="1.1" id="Layer_1" xmlns="http://www.w3.org/2000/svg" xmlns:xlink="http://www.w3.org/1999/xlink" x="0px" y="0px"
	 viewBox="0 0 50 50" style="enable-background:new 0 0 50 50;" xml:space="preserve">
<style type="text/css">
	.st0{fill:#231F20;}
</style>
<path class="st0" d="M26.9,34.1c-0.6,0.6-1.4,0.9-2.1,0.9s-1.5-0.3-2.1-0.9L11.1,22.6c-1.2-1.2-1.2-3.1,0-4.2c1.2-1.2,3.1-1.2,4.2,0
	l9.4,9.4L42.7,9.8c-4.3-5-10.6-8.1-17.7-8.1C12.1,1.6,1.6,12.1,1.6,25c0,12.9,10.5,23.4,23.4,23.4c12.9,0,23.4-10.5,23.4-23.4
	c0-3.6-0.8-7.1-2.3-10.1L26.9,34.1z"/>
</svg>
