<svg xmlns="http://www.w3.org/2000/svg" viewBox="0 0 60.98 52.67"><defs><style>.cls-1{fill:#5816bf;}</style></defs><title>id-flex-logo</title><g id="Layer_1" data-name="Layer 1"><path class="cls-1" d="M36.78,20.28H29.31a.5.5,0,0,1-.5-.5V14a.5.5,0,0,1,.5-.5h7.47a.5.5,0,0,1,.5.5v5.81A.5.5,0,0,1,36.78,20.28Zm-7-1h6.47V14.47H29.81Z"/><path class="cls-1" d="M43,43.93a36.56,36.56,0,0,1-7.59-.84c-3.66-.91-3.7-3.78-3.7-3.81a.5.5,0,0,1,1,0c0,.09.07,2.12,2.94,2.84a36.19,36.19,0,0,0,7.35.82.5.5,0,1,1,0,1ZM32.71,39.28h0Z"/><path class="cls-1" d="M41.34,43.93a.5.5,0,0,1,0-1,36.2,36.2,0,0,0,7.35-.82c2.87-.72,2.94-2.75,2.94-2.84a.5.5,0,0,1,.5-.49h0a.5.5,0,0,1,.5.5s0,2.89-3.7,3.81A36.58,36.58,0,0,1,41.34,43.93Z"/><path class="cls-1" d="M27.65,25.26a.5.5,0,0,1-.35-.15,8.11,8.11,0,0,0-3.07-1.5.5.5,0,0,1,.29-1A8.76,8.76,0,0,1,28,24.41a.5.5,0,0,1-.35.85Z"/><path class="cls-1" d="M6.9,25.26a.5.5,0,0,1-.3-.9,10.32,10.32,0,0,1,2.34-1.17.5.5,0,1,1,.36.93,9.66,9.66,0,0,0-2.09,1A.5.5,0,0,1,6.9,25.26Z"/><path class="cls-1" d="M24.33,43.52H9.39a.5.5,0,0,1-.5-.43L6.4,25.66a.5.5,0,0,1,.13-.41.5.5,0,0,1,.41-.16l10,.83,10.65-.83a.5.5,0,0,1,.53.59L24.82,43.11A.5.5,0,0,1,24.33,43.52Zm-14.51-1H23.91L27,26.14,17,26.92l-9.47-.78Z"/><path class="cls-1" d="M9.8,25.67a.5.5,0,0,1-.48-.36L7.66,19.5a.5.5,0,0,1,.26-.58l1.21-.61-.64-2.12a.5.5,0,0,1,.32-.62l2.49-.83a.52.52,0,0,1,.41,0,.5.5,0,0,1,.24.34l.09.49a.5.5,0,0,1,.25-.07h2v-.33a.5.5,0,0,1,.22-.42L17,13.14a.5.5,0,0,1,.78.42v.33h2a.5.5,0,0,1,.37.16l0,.06a.5.5,0,0,1,.42-.22h2.49a.5.5,0,0,1,.49.58l-.32,1.94.11.05,2.49,1.66a.5.5,0,0,1,.2.57l-1.66,5a.5.5,0,0,1-.95-.32L25,18.74l-1.57-1-1.5,6.76a.51.51,0,0,1-.58.38.5.5,0,0,1-.4-.57l1.56-9.38H21l-1.59,9.54a.51.51,0,0,1-.55.41.5.5,0,0,1-.44-.54l.79-9.42H17.77v9.46a.5.5,0,0,1-1,0V14.49l-1.49,1v8.86a.5.5,0,0,1-1,0v-7.8H12.84l.77,7.75a.5.5,0,0,1-.43.54.51.51,0,0,1-.56-.41l-1.56-8.56-1.48.5.54,1.79a.51.51,0,0,1,.16.24l1.66,5.81a.5.5,0,0,1-1,.28l-1.56-5.2-.69.34L10.28,25a.5.5,0,0,1-.34.62Z"/><path class="cls-1" d="M17,32.21s.35-1,.48-1.22c.43-.85.88-1.26,1.41-1.26.69,0,1.69,1.13,2.33,3.66A18.64,18.64,0,0,1,21.84,38H20.6v-.09a21.46,21.46,0,0,0-.4-4.27,17.69,17.69,0,0,0-.66-2.33c-.24-.63-.46-.91-.7-.91s-.38.15-.68,1.24a15.43,15.43,0,0,0-.4,2.05c-.12,1-.23,3.28-.26,3.85H16.2c0-.56-.13-2.81-.25-3.85a15.42,15.42,0,0,0-.4-2.05c-.29-1.09-.51-1.24-.68-1.24s-.46.28-.7.91a17.79,17.79,0,0,0-.66,2.33,21.45,21.45,0,0,0-.4,4.27V38H11.87a18.67,18.67,0,0,1,.64-4.63c.65-2.52,1.64-3.66,2.33-3.66.52,0,1,.41,1.41,1.26.13.25.48,1.21.48,1.22l.13.35.13-.35"/><path class="cls-1" d="M52.75,31.48H32a.5.5,0,0,1-.5-.5c0-5.6,4.27-9.22,10.88-9.22S53.25,25.39,53.25,31A.5.5,0,0,1,52.75,31.48Zm-20.24-1H52.24c-.25-4.71-4.07-7.72-9.86-7.72S32.77,25.78,32.52,30.48Z"/><path class="cls-1" d="M52.34,35.22H32.42a2.16,2.16,0,1,1,0-4.32H52.34a2.16,2.16,0,1,1,0,4.32ZM32.42,31.9a1.16,1.16,0,1,0,0,2.32H52.34a1.16,1.16,0,1,0,0-2.32Z"/><rect class="cls-1" x="35.95" y="28.08" width="0.83" height="0.83" rx="0.42" ry="0.42"/><rect class="cls-1" x="38.44" y="25.59" width="0.83" height="0.83" rx="0.42" ry="0.42"/><rect class="cls-1" x="38.44" y="40.53" width="0.83" height="0.83" rx="0.42" ry="0.42"/><rect class="cls-1" x="40.93" y="39.7" width="0.83" height="0.83" rx="0.42" ry="0.42"/><rect class="cls-1" x="43.42" y="40.53" width="0.83" height="0.83" rx="0.42" ry="0.42"/><rect class="cls-1" x="46.74" y="39.7" width="0.83" height="0.83" rx="0.42" ry="0.42"/><rect class="cls-1" x="46.74" y="26.42" width="0.83" height="0.83" rx="0.42" ry="0.42"/><rect class="cls-1" x="41.76" y="24.76" width="0.83" height="0.83" rx="0.42" ry="0.42"/><rect class="cls-1" x="41.76" y="27.25" width="0.83" height="0.83" rx="0.42" ry="0.42"/><rect class="cls-1" x="45.08" y="28.08" width="0.83" height="0.83" rx="0.42" ry="0.42"/><rect class="cls-1" x="39.27" y="28.08" width="0.83" height="0.83" rx="0.42" ry="0.42"/><path class="cls-1" d="M37.66,39.28a3.07,3.07,0,0,1-2.07-.89s-.63-.55-1.91.09a2.57,2.57,0,0,1-2.5.24,1.64,1.64,0,0,1-.72-1.52,3.31,3.31,0,0,1,1-2,.5.5,0,0,1,.71.71,2.35,2.35,0,0,0-.68,1.31.78.78,0,0,0,.24.67c.26.16.84.06,1.52-.29,2-1,3,.05,3.07.09a1.78,1.78,0,0,0,2.51.09c.18-.48,1-1.07,3.77-1.07a.5.5,0,0,1,0,1c-2.22,0-2.75.38-2.84.46a.5.5,0,0,1-.13.22A2.72,2.72,0,0,1,37.66,39.28Zm2.07-1.09Zm0-.14Zm0,0h0Zm0,0h0Z"/><path class="cls-1" d="M52.09,39a3.79,3.79,0,0,1-1.64-.47c-1.28-.64-1.9-.11-1.92-.09a.58.58,0,0,1-.19.11c-.46.15-2.84.88-3.83-.12a.5.5,0,0,1-.13-.22c-.09-.08-.62-.46-2.84-.46a.5.5,0,0,1,0-1c2.75,0,3.56.57,3.76,1a4.29,4.29,0,0,0,2.63-.16,2.7,2.7,0,0,1,3,0c.69.34,1.26.46,1.52.29a.79.79,0,0,0,.24-.67A2.37,2.37,0,0,0,52,35.9a.5.5,0,0,1,.71-.71,3.31,3.31,0,0,1,1,2,1.65,1.65,0,0,1-.72,1.52A1.6,1.6,0,0,1,52.09,39Zm-7.7-.77Zm0-.14Zm0,0h0Zm0,0h0Z"/><path class="cls-1" d="M32.63,17a.5.5,0,0,1-.43-.24l-2.49-4.15a.5.5,0,0,1,.86-.51l2,3.33c1-2.18,3.34-6.94,4.82-7.67a.5.5,0,0,1,.45.89c-1.09.55-3.49,5.23-4.75,8.06a.5.5,0,0,1-.43.3Z"/></g></svg>