<?xml version="1.0" encoding="utf-8"?>
<!-- Generator: Adobe Illustrator 21.0.0, SVG Export Plug-In . SVG Version: 6.00 Build 0)  -->
<svg version="1.1" id="Layer_1" xmlns="http://www.w3.org/2000/svg" xmlns:xlink="http://www.w3.org/1999/xlink" x="0px" y="0px"
	 viewBox="0 0 61.4 53" style="enable-background:new 0 0 61.4 53;" xml:space="preserve">
<style type="text/css">
	.st0{fill:none;stroke:#5816BF;stroke-width:2;stroke-linecap:round;stroke-linejoin:round;stroke-miterlimit:10;}
	.st1{fill:none;stroke:#5816BF;stroke-width:2;stroke-miterlimit:10;}
	.st2{fill:#5816BF;}
	.st3{fill:none;stroke:#5816BF;stroke-width:3;stroke-linecap:round;stroke-linejoin:round;stroke-miterlimit:10;}
	.st4{clip-path:url(#SVGID_2_);}
	.st5{fill:none;stroke:#5816BF;stroke-linecap:round;stroke-linejoin:round;stroke-miterlimit:10;}
	.st6{fill:none;}
	.st7{fill:none;stroke:#5816BF;stroke-width:2;stroke-linecap:round;stroke-miterlimit:10;}
	.st8{fill:#5816BF;stroke:#5816BF;stroke-width:0.75;stroke-miterlimit:10;}
	.st9{fill:none;stroke:#5816BF;stroke-miterlimit:10;}
	.st10{fill:none;stroke:#5816BF;stroke-width:0.75;stroke-linecap:round;stroke-linejoin:round;stroke-miterlimit:10;}
	.st11{fill:none;stroke:#5816BF;stroke-width:0.5;stroke-linecap:round;stroke-linejoin:round;stroke-miterlimit:10;}
	.st12{fill:none;stroke:#5816BF;stroke-linecap:round;stroke-miterlimit:10;}
	.st13{fill:#5816BF;stroke:#5816BF;stroke-width:0.25;stroke-miterlimit:10;}
	.st14{clip-path:url(#SVGID_4_);}
	.st15{fill:#FFFFFF;stroke:#5816BF;stroke-linecap:round;stroke-linejoin:round;stroke-miterlimit:10;}
	.st16{fill:#FFFFFF;}
	.st17{clip-path:url(#SVGID_6_);}
</style>
<g>
	<path class="st2" d="M46.2,48.9H14.7c-1.7,0-3.1-1.4-3.1-3.1V7.1C11.6,5.4,13,4,14.7,4h31.5c1.7,0,3.1,1.4,3.1,3.1v38.7
		C49.3,47.5,47.9,48.9,46.2,48.9z M14.7,5.6c-0.8,0-1.5,0.7-1.5,1.5v38.7c0,0.8,0.7,1.5,1.5,1.5h31.5c0.8,0,1.5-0.7,1.5-1.5V7.1
		c0-0.8-0.7-1.5-1.5-1.5H14.7z"/>
	<g>
		<polyline class="st5" points="34.4,36.8 18.2,36.8 18.2,25 42,25 42,36.8 38.6,36.8 		"/>
		<path class="st5" d="M31.6,28.7c0,0-2.1-0.8-2.7,0.2c-0.2,0.4-0.4,1.4,0.9,1.6c1.5,0.2,1.9,0.4,1.8,1.3c-0.1,1.2-1.2,1-3,0.8"/>
		<line class="st5" x1="30.1" y1="27.4" x2="30.1" y2="33.8"/>
	</g>
	<polyline class="st10" points="34,40.6 36.7,43.2 39.2,40.6 	"/>
	<line class="st10" x1="36.5" y1="41.1" x2="36.5" y2="31"/>
	<path class="st2" d="M39.4,11.1H20.6c-0.3,0-0.6-0.2-0.6-0.4s0.3-0.4,0.6-0.4h18.9c0.3,0,0.6,0.2,0.6,0.4S39.8,11.1,39.4,11.1z"/>
	<path class="st2" d="M33,13.7H20.6c-0.3,0-0.6-0.2-0.6-0.4c0-0.2,0.3-0.4,0.6-0.4H33c0.3,0,0.6,0.2,0.6,0.4
		C33.6,13.5,33.3,13.7,33,13.7z"/>
	<path class="st2" d="M39.4,17.4H20.6c-0.3,0-0.6-0.2-0.6-0.4s0.3-0.4,0.6-0.4h18.9c0.3,0,0.6,0.2,0.6,0.4S39.8,17.4,39.4,17.4z"/>
	<path class="st2" d="M33,20H20.6c-0.3,0-0.6-0.2-0.6-0.4s0.3-0.4,0.6-0.4H33c0.3,0,0.6,0.2,0.6,0.4S33.3,20,33,20z"/>
</g>
</svg>
