<?xml version="1.0" encoding="utf-8"?>
<!-- Generator: Adobe Illustrator 21.0.0, SVG Export Plug-In . SVG Version: 6.00 Build 0)  -->
<svg version="1.1" id="Layer_1" xmlns="http://www.w3.org/2000/svg" xmlns:xlink="http://www.w3.org/1999/xlink" x="0px" y="0px"
	 viewBox="0 0 61.4 53" style="enable-background:new 0 0 61.4 53;" xml:space="preserve">
<style type="text/css">
	.st0{fill:none;stroke:#5816BF;stroke-width:2;stroke-linecap:round;stroke-linejoin:round;stroke-miterlimit:10;}
	.st1{fill:none;stroke:#5816BF;stroke-width:2;stroke-miterlimit:10;}
	.st2{fill:#5816BF;}
	.st3{fill:none;stroke:#5816BF;stroke-width:3;stroke-linecap:round;stroke-linejoin:round;stroke-miterlimit:10;}
	.st4{clip-path:url(#SVGID_2_);}
	.st5{fill:none;stroke:#5816BF;stroke-linecap:round;stroke-linejoin:round;stroke-miterlimit:10;}
	.st6{fill:none;}
	.st7{fill:none;stroke:#5816BF;stroke-width:2;stroke-linecap:round;stroke-miterlimit:10;}
	.st8{fill:#5816BF;stroke:#5816BF;stroke-width:0.75;stroke-miterlimit:10;}
	.st9{fill:none;stroke:#5816BF;stroke-miterlimit:10;}
	.st10{fill:none;stroke:#5816BF;stroke-width:0.75;stroke-linecap:round;stroke-linejoin:round;stroke-miterlimit:10;}
	.st11{fill:none;stroke:#5816BF;stroke-width:0.5;stroke-linecap:round;stroke-linejoin:round;stroke-miterlimit:10;}
	.st12{fill:none;stroke:#5816BF;stroke-linecap:round;stroke-miterlimit:10;}
	.st13{fill:#5816BF;stroke:#5816BF;stroke-width:0.25;stroke-miterlimit:10;}
	.st14{clip-path:url(#SVGID_4_);}
	.st15{fill:#FFFFFF;stroke:#5816BF;stroke-linecap:round;stroke-linejoin:round;stroke-miterlimit:10;}
	.st16{fill:#FFFFFF;}
	.st17{clip-path:url(#SVGID_6_);}
</style>
<g>
	<path class="st2" d="M46.2,48.9H14.7c-1.7,0-3.1-1.4-3.1-3.1V7.1C11.6,5.4,13,4,14.7,4h31.5c1.7,0,3.1,1.4,3.1,3.1v38.7
		C49.3,47.5,47.9,48.9,46.2,48.9z M14.7,5.6c-0.8,0-1.5,0.7-1.5,1.5v38.7c0,0.8,0.7,1.5,1.5,1.5h31.5c0.8,0,1.5-0.7,1.5-1.5V7.1
		c0-0.8-0.7-1.5-1.5-1.5H14.7z"/>
	<g>
		<rect x="18.7" y="24.1" class="st5" width="23.9" height="11.8"/>
		<path class="st5" d="M32.1,27.8c0,0-2.1-0.8-2.7,0.2c-0.2,0.4-0.4,1.4,0.9,1.6c1.5,0.2,1.9,0.4,1.8,1.3c-0.1,1.2-1.2,1-3,0.8"/>
		<line class="st5" x1="30.6" y1="26.5" x2="30.6" y2="32.9"/>
	</g>
	<polyline class="st10" points="31.4,38.4 28.8,41 31.3,43.6 	"/>
	<line class="st10" x1="30.9" y1="40.8" x2="41" y2="40.8"/>
	<g>
		<path class="st5" d="M23.5,11.4c0,0-2.7-1-3.4,0.3c-0.3,0.5-0.5,1.8,1.1,2c1.9,0.2,2.4,0.5,2.3,1.7c-0.1,1.6-1.6,1.3-3.9,1"/>
		<line class="st5" x1="21.6" y1="9.7" x2="21.6" y2="18"/>
	</g>
	<g>
		<path class="st5" d="M32.5,11.4c0,0-2.7-1-3.4,0.3c-0.3,0.5-0.5,1.8,1.1,2c1.9,0.2,2.4,0.5,2.3,1.7c-0.1,1.6-1.6,1.3-3.9,1"/>
		<line class="st11" x1="30" y1="9.7" x2="30" y2="18"/>
		<line class="st11" x1="31.6" y1="9.7" x2="31.6" y2="18"/>
	</g>
	<path class="st5" d="M42.3,17.5c-1.9,0-3.4-1.5-3.4-3.4s1.5-3.4,3.4-3.4"/>
	<line class="st5" x1="42.2" y1="13.4" x2="37.2" y2="13.4"/>
	<line class="st5" x1="42.2" y1="15.4" x2="37.2" y2="15.4"/>
</g>
</svg>
