<?xml version="1.0" encoding="utf-8"?>
<!-- Generator: Adobe Illustrator 21.0.0, SVG Export Plug-In . SVG Version: 6.00 Build 0)  -->
<svg version="1.1" id="Layer_1" xmlns="http://www.w3.org/2000/svg" xmlns:xlink="http://www.w3.org/1999/xlink" x="0px" y="0px"
	 viewBox="0 0 61.4 53" style="enable-background:new 0 0 61.4 53;" xml:space="preserve">
<style type="text/css">
	.st0{fill:none;stroke:#5816BF;stroke-width:2;stroke-linecap:round;stroke-linejoin:round;stroke-miterlimit:10;}
	.st1{fill:none;stroke:#5816BF;stroke-width:2;stroke-miterlimit:10;}
	.st2{fill:#5816BF;}
	.st3{fill:none;stroke:#5816BF;stroke-width:3;stroke-linecap:round;stroke-linejoin:round;stroke-miterlimit:10;}
	.st4{clip-path:url(#SVGID_2_);}
	.st5{fill:none;stroke:#5816BF;stroke-linecap:round;stroke-linejoin:round;stroke-miterlimit:10;}
	.st6{fill:none;}
	.st7{fill:none;stroke:#5816BF;stroke-width:2;stroke-linecap:round;stroke-miterlimit:10;}
	.st8{fill:#5816BF;stroke:#5816BF;stroke-width:0.75;stroke-miterlimit:10;}
	.st9{fill:none;stroke:#5816BF;stroke-miterlimit:10;}
	.st10{fill:none;stroke:#5816BF;stroke-width:0.75;stroke-linecap:round;stroke-linejoin:round;stroke-miterlimit:10;}
	.st11{fill:none;stroke:#5816BF;stroke-width:0.5;stroke-linecap:round;stroke-linejoin:round;stroke-miterlimit:10;}
	.st12{fill:none;stroke:#5816BF;stroke-linecap:round;stroke-miterlimit:10;}
	.st13{fill:#5816BF;stroke:#5816BF;stroke-width:0.25;stroke-miterlimit:10;}
	.st14{clip-path:url(#SVGID_4_);}
	.st15{fill:#FFFFFF;stroke:#5816BF;stroke-linecap:round;stroke-linejoin:round;stroke-miterlimit:10;}
	.st16{fill:#FFFFFF;}
	.st17{clip-path:url(#SVGID_6_);}
</style>
<g>
	<g>
		<path class="st2" d="M46,48.6H15c-1.7,0-3.1-1.4-3.1-3.1V7.4c0-1.7,1.4-3.1,3.1-3.1h31c1.7,0,3.1,1.4,3.1,3.1v38.1
			C49,47.2,47.7,48.6,46,48.6z M15,5.9c-0.8,0-1.5,0.7-1.5,1.5v38.1c0,0.8,0.7,1.5,1.5,1.5h31c0.8,0,1.5-0.7,1.5-1.5V7.4
			c0-0.8-0.7-1.5-1.5-1.5H15z"/>
	</g>
	<line class="st5" x1="31.3" y1="14.5" x2="43.4" y2="14.5"/>
	<line class="st5" x1="31.3" y1="16.5" x2="43.4" y2="16.5"/>
	<line class="st5" x1="31.3" y1="27.5" x2="43.4" y2="27.5"/>
	<line class="st5" x1="31.3" y1="29.5" x2="43.4" y2="29.5"/>
	<line class="st5" x1="31.3" y1="40.5" x2="43.4" y2="40.5"/>
	<line class="st5" x1="31.3" y1="42.5" x2="43.4" y2="42.5"/>
	<path class="st9" d="M18,18.8c0-1.7,1.8-3,4.1-3s4.1,1.4,4.1,3"/>
	<circle class="st9" cx="22.1" cy="12.3" r="2.3"/>
	<path class="st9" d="M18,30.8c0-1.7,1.8-3,4.1-3s4.1,1.4,4.1,3"/>
	<circle class="st9" cx="22.1" cy="24.3" r="2.3"/>
	<path class="st9" d="M18,42.8c0-1.7,1.8-3,4.1-3s4.1,1.4,4.1,3"/>
	<circle class="st9" cx="22.1" cy="36.3" r="2.3"/>
</g>
</svg>
