<?xml version="1.0" encoding="utf-8"?>
<!-- Generator: Adobe Illustrator 21.0.0, SVG Export Plug-In . SVG Version: 6.00 Build 0)  -->
<svg version="1.1" id="Layer_1" xmlns="http://www.w3.org/2000/svg" xmlns:xlink="http://www.w3.org/1999/xlink" x="0px" y="0px"
	 viewBox="0 0 61.4 53" style="enable-background:new 0 0 61.4 53;" xml:space="preserve">
<style type="text/css">
	.st0{fill:none;stroke:#5816BF;stroke-width:2;stroke-linecap:round;stroke-linejoin:round;stroke-miterlimit:10;}
	.st1{fill:none;stroke:#5816BF;stroke-width:2;stroke-miterlimit:10;}
	.st2{fill:#5816BF;}
	.st3{fill:none;stroke:#5816BF;stroke-width:3;stroke-linecap:round;stroke-linejoin:round;stroke-miterlimit:10;}
	.st4{clip-path:url(#SVGID_2_);}
	.st5{fill:none;stroke:#5816BF;stroke-linecap:round;stroke-linejoin:round;stroke-miterlimit:10;}
	.st6{fill:none;}
	.st7{fill:none;stroke:#5816BF;stroke-width:2;stroke-linecap:round;stroke-miterlimit:10;}
	.st8{fill:#5816BF;stroke:#5816BF;stroke-width:0.75;stroke-miterlimit:10;}
	.st9{fill:none;stroke:#5816BF;stroke-miterlimit:10;}
	.st10{fill:none;stroke:#5816BF;stroke-width:0.75;stroke-linecap:round;stroke-linejoin:round;stroke-miterlimit:10;}
	.st11{fill:none;stroke:#5816BF;stroke-width:0.5;stroke-linecap:round;stroke-linejoin:round;stroke-miterlimit:10;}
	.st12{fill:none;stroke:#5816BF;stroke-linecap:round;stroke-miterlimit:10;}
	.st13{fill:#5816BF;stroke:#5816BF;stroke-width:0.25;stroke-miterlimit:10;}
	.st14{clip-path:url(#SVGID_4_);}
	.st15{fill:#FFFFFF;stroke:#5816BF;stroke-linecap:round;stroke-linejoin:round;stroke-miterlimit:10;}
	.st16{fill:#FFFFFF;}
	.st17{clip-path:url(#SVGID_6_);}
</style>
<g>
	<g>
		<path class="st5" d="M22.8,24.1c0,0-2.7-1-3.4,0.3c-0.3,0.5-0.5,1.8,1.1,2c1.9,0.2,2.4,0.5,2.3,1.7c-0.1,1.6-1.6,1.3-3.9,1"/>
		<line class="st5" x1="20.9" y1="22.4" x2="20.9" y2="30.7"/>
	</g>
	<g>
		<path class="st2" d="M46,48.6H15c-1.7,0-3.1-1.4-3.1-3.1V7.4c0-1.7,1.4-3.1,3.1-3.1h31c1.7,0,3.1,1.4,3.1,3.1v38.1
			C49,47.3,47.7,48.6,46,48.6z M15,6c-0.8,0-1.5,0.7-1.5,1.5v38.1c0,0.8,0.7,1.5,1.5,1.5h31c0.8,0,1.5-0.7,1.5-1.5V7.4
			C47.5,6.6,46.8,6,46,6H15z"/>
	</g>
	<g>
		<line class="st5" x1="27.8" y1="13.7" x2="41.8" y2="13.7"/>
		<line class="st5" x1="27.8" y1="15.7" x2="41.8" y2="15.7"/>
		<line class="st5" x1="27.8" y1="25.7" x2="40.9" y2="25.7"/>
		<line class="st5" x1="27.8" y1="27.7" x2="40.9" y2="27.7"/>
		<path class="st5" d="M22.8,12.4c0,0-2.7-1-3.4,0.3c-0.3,0.5-0.5,1.8,1.1,2c1.9,0.2,2.4,0.5,2.3,1.7c-0.1,1.6-1.6,1.3-3.9,1"/>
		<line class="st5" x1="20.9" y1="10.7" x2="20.9" y2="19"/>
	</g>
	<g>
		<line class="st5" x1="27.8" y1="38.2" x2="40.9" y2="38.2"/>
		<line class="st5" x1="27.8" y1="40.2" x2="40.9" y2="40.2"/>
		<path class="st5" d="M22.8,36.9c0,0-2.7-1-3.4,0.3c-0.3,0.5-0.5,1.8,1.1,2c1.9,0.2,2.4,0.5,2.3,1.7c-0.1,1.6-1.6,1.3-3.9,1"/>
		<line class="st5" x1="20.9" y1="35.1" x2="20.9" y2="43.5"/>
	</g>
</g>
</svg>
