<?xml version="1.0" encoding="utf-8"?>
<!-- Generator: Adobe Illustrator 21.0.0, SVG Export Plug-In . SVG Version: 6.00 Build 0)  -->
<svg version="1.1" id="Layer_1" xmlns="http://www.w3.org/2000/svg" xmlns:xlink="http://www.w3.org/1999/xlink" x="0px" y="0px"
	 viewBox="0 0 61.4 53" style="enable-background:new 0 0 61.4 53;" xml:space="preserve">
<style type="text/css">
	.st0{fill:none;stroke:#5816BF;stroke-width:2;stroke-linecap:round;stroke-linejoin:round;stroke-miterlimit:10;}
	.st1{fill:none;stroke:#5816BF;stroke-width:2;stroke-miterlimit:10;}
	.st2{fill:#5816BF;}
	.st3{fill:none;stroke:#5816BF;stroke-width:3;stroke-linecap:round;stroke-linejoin:round;stroke-miterlimit:10;}
	.st4{clip-path:url(#SVGID_2_);}
	.st5{fill:none;stroke:#5816BF;stroke-linecap:round;stroke-linejoin:round;stroke-miterlimit:10;}
	.st6{fill:none;}
	.st7{fill:none;stroke:#5816BF;stroke-width:2;stroke-linecap:round;stroke-miterlimit:10;}
	.st8{fill:#5816BF;stroke:#5816BF;stroke-width:0.75;stroke-miterlimit:10;}
	.st9{fill:none;stroke:#5816BF;stroke-miterlimit:10;}
	.st10{fill:none;stroke:#5816BF;stroke-width:0.75;stroke-linecap:round;stroke-linejoin:round;stroke-miterlimit:10;}
	.st11{fill:none;stroke:#5816BF;stroke-width:0.5;stroke-linecap:round;stroke-linejoin:round;stroke-miterlimit:10;}
	.st12{fill:none;stroke:#5816BF;stroke-linecap:round;stroke-miterlimit:10;}
	.st13{fill:#5816BF;stroke:#5816BF;stroke-width:0.25;stroke-miterlimit:10;}
	.st14{clip-path:url(#SVGID_4_);}
	.st15{fill:#FFFFFF;stroke:#5816BF;stroke-linecap:round;stroke-linejoin:round;stroke-miterlimit:10;}
	.st16{fill:#FFFFFF;}
	.st17{clip-path:url(#SVGID_6_);}
</style>
<g>
	<path class="st2" d="M46.2,48.9H14.7c-1.7,0-3.1-1.4-3.1-3.1V7.1C11.6,5.4,13,4,14.7,4h31.5c1.7,0,3.1,1.4,3.1,3.1v38.7
		C49.3,47.5,47.9,48.9,46.2,48.9z M14.7,5.6c-0.8,0-1.5,0.7-1.5,1.5v38.7c0,0.8,0.7,1.5,1.5,1.5h31.5c0.8,0,1.5-0.7,1.5-1.5V7.1
		c0-0.8-0.7-1.5-1.5-1.5H14.7z"/>
	<path class="st2" d="M40.7,31.6H20c-0.4,0-0.6-0.2-0.6-0.4c0-0.2,0.3-0.4,0.6-0.4h20.7c0.4,0,0.6,0.2,0.6,0.4
		C41.3,31.4,41,31.6,40.7,31.6z"/>
	<path class="st2" d="M33.6,34.1H20c-0.4,0-0.6-0.2-0.6-0.4s0.3-0.4,0.6-0.4h13.6c0.4,0,0.6,0.2,0.6,0.4S33.9,34.1,33.6,34.1z"/>
	<path class="st2" d="M40.7,38.6H20c-0.4,0-0.6-0.2-0.6-0.4s0.3-0.4,0.6-0.4h20.7c0.4,0,0.6,0.2,0.6,0.4S41,38.6,40.7,38.6z"/>
	<path class="st2" d="M33.6,41H20c-0.4,0-0.6-0.2-0.6-0.4s0.3-0.4,0.6-0.4h13.6c0.4,0,0.6,0.2,0.6,0.4S33.9,41,33.6,41z"/>
	<g>
		<circle class="st9" cx="30.9" cy="18" r="7.6"/>
		<polyline class="st9" points="30.4,12.9 30.4,18.4 33.7,21.7 		"/>
	</g>
</g>
</svg>
