<?xml version="1.0" encoding="utf-8"?>
<!-- Generator: Adobe Illustrator 21.0.0, SVG Export Plug-In . SVG Version: 6.00 Build 0)  -->
<svg version="1.1" id="Layer_1" xmlns="http://www.w3.org/2000/svg" xmlns:xlink="http://www.w3.org/1999/xlink" x="0px" y="0px"
	 viewBox="0 0 61.4 53" style="enable-background:new 0 0 61.4 53;" xml:space="preserve">
<style type="text/css">
	.st0{fill:none;stroke:#5816BF;stroke-width:2;stroke-linecap:round;stroke-linejoin:round;stroke-miterlimit:10;}
	.st1{fill:none;stroke:#5816BF;stroke-width:2;stroke-miterlimit:10;}
	.st2{fill:#5816BF;}
	.st3{fill:none;stroke:#5816BF;stroke-width:3;stroke-linecap:round;stroke-linejoin:round;stroke-miterlimit:10;}
	.st4{clip-path:url(#SVGID_2_);}
	.st5{fill:none;stroke:#5816BF;stroke-linecap:round;stroke-linejoin:round;stroke-miterlimit:10;}
	.st6{fill:none;}
	.st7{fill:none;stroke:#5816BF;stroke-width:2;stroke-linecap:round;stroke-miterlimit:10;}
	.st8{fill:#5816BF;stroke:#5816BF;stroke-width:0.75;stroke-miterlimit:10;}
	.st9{fill:none;stroke:#5816BF;stroke-miterlimit:10;}
	.st10{fill:none;stroke:#5816BF;stroke-width:0.75;stroke-linecap:round;stroke-linejoin:round;stroke-miterlimit:10;}
	.st11{fill:none;stroke:#5816BF;stroke-width:0.5;stroke-linecap:round;stroke-linejoin:round;stroke-miterlimit:10;}
	.st12{fill:none;stroke:#5816BF;stroke-linecap:round;stroke-miterlimit:10;}
	.st13{fill:#5816BF;stroke:#5816BF;stroke-width:0.25;stroke-miterlimit:10;}
	.st14{clip-path:url(#SVGID_4_);}
	.st15{fill:#FFFFFF;stroke:#5816BF;stroke-linecap:round;stroke-linejoin:round;stroke-miterlimit:10;}
	.st16{fill:#FFFFFF;}
	.st17{clip-path:url(#SVGID_6_);}
</style>
<g>
	<g>
		<path class="st13" d="M27.5,24.8H12.4c-0.8,0-1.5-0.7-1.5-1.5V4.7c0-0.8,0.7-1.5,1.5-1.5h15.1c0.8,0,1.5,0.7,1.5,1.5v18.6
			C29,24.1,28.4,24.8,27.5,24.8z M12.4,4c-0.4,0-0.7,0.3-0.7,0.7v18.6c0,0.4,0.3,0.7,0.7,0.7h15.1c0.4,0,0.7-0.3,0.7-0.7V4.7
			c0-0.4-0.3-0.7-0.7-0.7H12.4z"/>
	</g>
	<path class="st9" d="M15.3,16.7c0-1.9,2.1-3.5,4.7-3.5s4.7,1.5,4.7,3.5"/>
	<circle class="st9" cx="20" cy="9.3" r="2.6"/>
	<line class="st5" x1="15.1" y1="19.2" x2="24.8" y2="19.2"/>
	<line class="st5" x1="15.1" y1="20.7" x2="24.8" y2="20.7"/>
	<g>
		<path class="st13" d="M48.5,24.8H33.4c-0.8,0-1.5-0.7-1.5-1.5V4.7c0-0.8,0.7-1.5,1.5-1.5h15.1c0.8,0,1.5,0.7,1.5,1.5v18.6
			C50,24.1,49.3,24.8,48.5,24.8z M33.4,4c-0.4,0-0.7,0.3-0.7,0.7v18.6c0,0.4,0.3,0.7,0.7,0.7h15.1c0.4,0,0.7-0.3,0.7-0.7V4.7
			c0-0.4-0.3-0.7-0.7-0.7H33.4z"/>
	</g>
	<path class="st9" d="M36.3,16.7c0-1.9,2.1-3.5,4.7-3.5s4.7,1.5,4.7,3.5"/>
	<circle class="st9" cx="41" cy="9.3" r="2.6"/>
	<line class="st5" x1="36.1" y1="19.2" x2="45.8" y2="19.2"/>
	<line class="st5" x1="36.1" y1="20.7" x2="45.8" y2="20.7"/>
	<g>
		<path class="st13" d="M27.5,48.9H12.4c-0.8,0-1.5-0.7-1.5-1.5V28.9c0-0.8,0.7-1.5,1.5-1.5h15.1c0.8,0,1.5,0.7,1.5,1.5v18.6
			C29,48.3,28.4,48.9,27.5,48.9z M12.4,28.1c-0.4,0-0.7,0.3-0.7,0.7v18.6c0,0.4,0.3,0.7,0.7,0.7h15.1c0.4,0,0.7-0.3,0.7-0.7V28.9
			c0-0.4-0.3-0.7-0.7-0.7H12.4z"/>
	</g>
	<path class="st9" d="M15.3,40.9c0-1.9,2.1-3.5,4.7-3.5s4.7,1.5,4.7,3.5"/>
	<circle class="st9" cx="20" cy="33.5" r="2.6"/>
	<line class="st5" x1="15.1" y1="43.3" x2="24.8" y2="43.3"/>
	<line class="st5" x1="15.1" y1="44.9" x2="24.8" y2="44.9"/>
	<g>
		<path class="st13" d="M48.5,48.9H33.4c-0.8,0-1.5-0.7-1.5-1.5V28.9c0-0.8,0.7-1.5,1.5-1.5h15.1c0.8,0,1.5,0.7,1.5,1.5v18.6
			C50,48.3,49.3,48.9,48.5,48.9z M33.4,28.1c-0.4,0-0.7,0.3-0.7,0.7v18.6c0,0.4,0.3,0.7,0.7,0.7h15.1c0.4,0,0.7-0.3,0.7-0.7V28.9
			c0-0.4-0.3-0.7-0.7-0.7H33.4z"/>
	</g>
	<path class="st9" d="M36.3,40.9c0-1.9,2.1-3.5,4.7-3.5s4.7,1.5,4.7,3.5"/>
	<circle class="st9" cx="41" cy="33.5" r="2.6"/>
	<line class="st5" x1="36.1" y1="43.3" x2="45.8" y2="43.3"/>
	<line class="st5" x1="36.1" y1="44.9" x2="45.8" y2="44.9"/>
</g>
</svg>
