<svg xmlns="http://www.w3.org/2000/svg" viewBox="0 0 149 64"><defs><style>.cls-1{fill:#fff;}.cls-2{fill:#ffcb04;}</style></defs><title>logo</title><g id="Layer_1" data-name="Layer 1"><path class="cls-1" d="M77.85,42.47H71.12V17.18H86.07v5.48H77.85v4.83h7.58V33H77.85Z"/><path class="cls-1" d="M88.09,42.47V17.18h6.83V37h9.74v5.52Z"/><path class="cls-1" d="M121.61,42.47h-15V17.18h15v5.48h-8.18v4H121v5.48h-7.58V36.9h8.18Z"/><path class="cls-1" d="M146.69,42.47h-7.91l-4.93-7.91L129,42.47h-7.73l8.39-12.94-7.89-12.35h7.58L133.89,25l4.39-7.82h7.8l-8,12.89Z"/><rect class="cls-2" x="70.8" y="45.34" width="25.01" height="4.65" rx="2.32" ry="2.32"/><path class="cls-2" d="M10,53.48a25.83,25.83,0,0,1-7.74-13,25.37,25.37,0,0,1-.7-5.92A28.26,28.26,0,0,1,3,25.71l.05,0-.05,0c.17-.5.33-1,.51-1.5l0-.12,0,0A.28.28,0,0,1,3.66,24a.29.29,0,0,1,.2-.08.3.3,0,0,1,.19.07.29.29,0,0,1,.09.11.31.31,0,0,1,0,.13.52.52,0,0,1,0,.06v0l0,.06-.05.17L4,24.8a23.66,23.66,0,0,0-1.17,7.41,24.84,24.84,0,0,0,1.52,8.56A25.32,25.32,0,0,0,27.78,57.3h.11c10.34,0,20.21-6.64,23.61-16.5,0-.06.15-.43.19-.52l0-.05a.3.3,0,0,1,.47,0l.05.07a.3.3,0,0,1,0,.13.58.58,0,0,1,0,.07v.05l0,.1c-.16.51-.33,1-.5,1.51a26.21,26.21,0,0,1-12.45,15,26.08,26.08,0,0,1-12.1,3A25.47,25.47,0,0,1,10,53.48"/><path class="cls-2" d="M13.14,44.35a.28.28,0,0,1-.15,0l0,0,0,0,0,0,0,0-.06-.08c-.29-.41-.58-.83-.86-1.24A25.55,25.55,0,0,1,7.41,28.61a22.77,22.77,0,0,1,.3-3.72A24.62,24.62,0,0,1,27.21,4.74a25.34,25.34,0,0,1,4.64-.43,24.17,24.17,0,0,1,9.65,2,25.53,25.53,0,0,1,10.82,9.08c.29.41.57.83.85,1.25l.07.1v0l0,0v0a.28.28,0,0,1-.28.35.28.28,0,0,1-.14,0l0,0,0,0,0,0,0,0,0,0-.1-.14-.16-.23A23.46,23.46,0,0,0,40.11,7.75a24.18,24.18,0,0,0-26.06,8.39A24.39,24.39,0,0,0,9.26,30.68a22.81,22.81,0,0,0,3.83,12.8l.13.2.15.23,0,.05a.3.3,0,0,1,0,.1.54.54,0,0,1,0,.06.25.25,0,0,1-.06.13.29.29,0,0,1-.21.1h0"/><path class="cls-2" d="M53.08,48.84h0l0,0h0m.1-.08,0,0,0,0m0,0h0m-.34,0s0,0-.06-.09a.26.26,0,0,1,0-.12v0h0v-.06l0,0,.08-.12.13-.19a19.35,19.35,0,0,0,3.45-11c0-.37,0-.75,0-1.12A20,20,0,0,0,20.62,25.16l-.21.28-.06.08h0l-.06,0a.23.23,0,0,1-.11,0,.24.24,0,0,1-.23-.28v-.06h0v0l0-.07.73-1a20.84,20.84,0,0,1,12.9-8.48A20.33,20.33,0,0,1,58,35.49c0,.38,0,.76,0,1.14a21.1,21.1,0,0,1-4,11l0,0h0l0,0c-.24.34-.48.68-.74,1l-.08.1h0l0,0,0,0h0l0,0H53a.24.24,0,0,1-.17-.07"/><path class="cls-2" d="M30.55,31.94s.82-2.23,1.12-2.83c1-2,2.06-2.93,3.27-2.93,1.61,0,3.92,2.63,5.42,8.5a43.32,43.32,0,0,1,1.48,10.76H39v-.2A49.88,49.88,0,0,0,38,35.31a41.12,41.12,0,0,0-1.54-5.41c-.57-1.47-1.07-2.13-1.63-2.13-.39,0-.89.34-1.57,2.88a35.86,35.86,0,0,0-.92,4.77c-.28,2.41-.53,7.63-.59,8.94h-3c-.06-1.31-.31-6.53-.59-8.94a35.85,35.85,0,0,0-.92-4.77c-.68-2.53-1.18-2.88-1.57-2.88-.56,0-1.07.66-1.63,2.13a41.36,41.36,0,0,0-1.54,5.41,49.86,49.86,0,0,0-.94,9.94v.2H18.68a43.39,43.39,0,0,1,1.48-10.76c1.5-5.87,3.81-8.5,5.42-8.5,1.21,0,2.28,1,3.27,2.93.3.59,1.11,2.8,1.12,2.83l.29.81.3-.81"/><path class="cls-2" d="M45,45a2.11,2.11,0,1,1,2.11-2.11A2.11,2.11,0,0,1,45,45m0-4.62a2.51,2.51,0,1,0,2.51,2.51A2.51,2.51,0,0,0,45,40.4"/><path class="cls-2" d="M44.54,42l-.33,1.28L43.87,42h-.46v1.73h.31l0-1.42.37,1.42h.28l.37-1.42,0,1.42H45V42Z"/><path class="cls-2" d="M45.87,42.32a.79.79,0,0,1,.34,0,.24.24,0,0,1,.13.23.27.27,0,0,1-.3.27h-.32v-.54Zm-.46,1.45h.32v-.64H46l.34.64h.37l-.39-.7a.48.48,0,0,0,.34-.48.54.54,0,0,0-.19-.43.74.74,0,0,0-.53-.12h-.54v1.73"/></g></svg>